AnekLatin-ExtraBold.ufo
<glyph name="colon" format="2">
  <advance width="517"/>
  <unicode hex="003A"/>
  <outline>
    <contour>
      <point x="259" y="-30" type="curve" smooth="yes"/>
      <point x="386" y="-30"/>
      <point x="447" y="40"/>
      <point x="447" y="157" type="curve" smooth="yes"/>
      <point x="447" y="168" type="line" smooth="yes"/>
      <point x="447" y="284"/>
      <point x="386" y="356"/>
      <point x="259" y="356" type="curve" smooth="yes"/>
      <point x="129" y="356"/>
      <point x="70" y="284"/>
      <point x="70" y="168" type="curve" smooth="yes"/>
      <point x="70" y="157" type="line" smooth="yes"/>
      <point x="70" y="40"/>
      <point x="129" y="-30"/>
    </contour>
    <contour>
      <point x="259" y="571" type="curve" smooth="yes"/>
      <point x="386" y="571"/>
      <point x="447" y="641"/>
      <point x="447" y="758" type="curve" smooth="yes"/>
      <point x="447" y="769" type="line" smooth="yes"/>
      <point x="447" y="885"/>
      <point x="386" y="957"/>
      <point x="259" y="957" type="curve" smooth="yes"/>
      <point x="129" y="957"/>
      <point x="70" y="885"/>
      <point x="70" y="769" type="curve" smooth="yes"/>
      <point x="70" y="758" type="line" smooth="yes"/>
      <point x="70" y="641"/>
      <point x="129" y="571"/>
    </contour>
  </outline>
</glyph>
<glyph name="semicolon" format="2">
  <advance width="517"/>
  <unicode hex="003B"/>
  <outline>
    <contour>
      <point x="421" y="345" type="curve"/>
      <point x="98" y="345" type="line"/>
      <point x="102" y="295"/>
      <point x="104" y="257"/>
      <point x="104" y="209" type="curve" smooth="yes"/>
      <point x="104" y="52"/>
      <point x="72" y="-71"/>
      <point x="16" y="-182" type="curve"/>
      <point x="257" y="-235" type="line"/>
      <point x="380" y="-100"/>
      <point x="431" y="47"/>
      <point x="431" y="222" type="curve" smooth="yes"/>
      <point x="431" y="268"/>
      <point x="426" y="309"/>
    </contour>
    <contour>
      <point x="259" y="571" type="curve" smooth="yes"/>
      <point x="386" y="571"/>
      <point x="447" y="641"/>
      <point x="447" y="758" type="curve" smooth="yes"/>
      <point x="447" y="769" type="line" smooth="yes"/>
      <point x="447" y="885"/>
      <point x="386" y="957"/>
      <point x="259" y="957" type="curve" smooth="yes"/>
      <point x="129" y="957"/>
      <point x="70" y="885"/>
      <point x="70" y="769" type="curve" smooth="yes"/>
      <point x="70" y="758" type="line" smooth="yes"/>
      <point x="70" y="641"/>
      <point x="129" y="571"/>
    </contour>
  </outline>
</glyph>
<glyph name="Z" format="2">
  <advance width="1093"/>
  <unicode hex="005A"/>
  <anchor x="547" y="0" name="bottom"/>
  <anchor x="547" y="639" name="center"/>
  <anchor x="547" y="1278" name="top"/>
  <outline>
    <contour>
      <point x="1038" y="302" type="line"/>
      <point x="473" y="302" type="line"/>
      <point x="1027" y="996" type="line"/>
      <point x="1027" y="1278" type="line"/>
      <point x="64" y="1278" type="line"/>
      <point x="64" y="977" type="line"/>
      <point x="606" y="977" type="line"/>
      <point x="54" y="284" type="line"/>
      <point x="54" y="0" type="line"/>
      <point x="1038" y="0" type="line"/>
    </contour>
  </outline>
</glyph>
<glyph name="ordmasculine" format="2">
  <advance width="712"/>
  <unicode hex="00BA"/>
  <outline>
    <contour>
      <point x="355" y="622" type="curve" smooth="yes"/>
      <point x="565" y="622"/>
      <point x="676" y="731"/>
      <point x="676" y="930" type="curve" smooth="yes"/>
      <point x="676" y="986" type="line" smooth="yes"/>
      <point x="676" y="1183"/>
      <point x="566" y="1294"/>
      <point x="355" y="1294" type="curve" smooth="yes"/>
      <point x="147" y="1294"/>
      <point x="36" y="1184"/>
      <point x="36" y="986" type="curve" smooth="yes"/>
      <point x="36" y="930" type="line" smooth="yes"/>
      <point x="36" y="731"/>
      <point x="147" y="622"/>
    </contour>
    <contour>
      <point x="356" y="814" type="curve" smooth="yes"/>
      <point x="303" y="814"/>
      <point x="278" y="850"/>
      <point x="278" y="914" type="curve" smooth="yes"/>
      <point x="278" y="1003" type="line" smooth="yes"/>
      <point x="278" y="1066"/>
      <point x="303" y="1102"/>
      <point x="356" y="1102" type="curve" smooth="yes"/>
      <point x="409" y="1102"/>
      <point x="434" y="1066"/>
      <point x="434" y="1003" type="curve" smooth="yes"/>
      <point x="434" y="914" type="line" smooth="yes"/>
      <point x="434" y="850"/>
      <point x="409" y="814"/>
    </contour>
  </outline>
</glyph>
<glyph name="guillemetright" format="2">
  <advance width="1061"/>
  <unicode hex="00BB"/>
  <outline>
    <contour>
      <point x="464" y="74" type="line"/>
      <point x="789" y="74" type="line"/>
      <point x="1033" y="470" type="line"/>
      <point x="1033" y="521" type="line"/>
      <point x="789" y="905" type="line"/>
      <point x="464" y="905" type="line"/>
      <point x="719" y="489" type="line"/>
    </contour>
    <contour>
      <point x="5" y="74" type="line"/>
      <point x="330" y="74" type="line"/>
      <point x="574" y="470" type="line"/>
      <point x="574" y="521" type="line"/>
      <point x="330" y="905" type="line"/>
      <point x="5" y="905" type="line"/>
      <point x="260" y="489" type="line"/>
    </contour>
  </outline>
</glyph>
<glyph name="dcroat" format="2">
  <advance width="1164"/>
  <unicode hex="0111"/>
  <anchor x="564" y="0" name="bottom"/>
  <anchor x="564" y="493" name="center"/>
  <anchor x="564" y="1319" name="top"/>
  <anchor x="1145" y="1319" name="topright"/>
  <outline>
    <contour>
      <point x="416" y="1064" type="line"/>
      <point x="1164" y="1064" type="line"/>
      <point x="1164" y="1221" type="line"/>
      <point x="416" y="1221" type="line"/>
    </contour>
    <component base="d"/>
  </outline>
</glyph>
<glyph name="eogonek" format="2">
  <advance width="1081"/>
  <unicode hex="0119"/>
  <anchor x="554" y="0" name="bottom"/>
  <anchor x="965" y="10" name="ogonek"/>
  <anchor x="554" y="985" name="top"/>
  <outline>
    <contour>
      <point x="780" y="-363" type="curve" smooth="yes"/>
      <point x="845" y="-363"/>
      <point x="902" y="-354"/>
      <point x="953" y="-336" type="curve"/>
      <point x="983" y="-114" type="line"/>
      <point x="946" y="-123"/>
      <point x="907" y="-128"/>
      <point x="868" y="-128" type="curve" smooth="yes"/>
      <point x="806" y="-128"/>
      <point x="772" y="-114"/>
      <point x="772" y="-73" type="curve"/>
      <point x="772" y="-73" type="line"/>
      <point x="772" y="-39"/>
      <point x="797" y="-15"/>
      <point x="844" y="-1" type="curve"/>
      <point x="846" y="16" type="line"/>
      <point x="667" y="-10" type="line"/>
      <point x="667" y="-36" type="line"/>
      <point x="571" y="-62"/>
      <point x="529" y="-114"/>
      <point x="529" y="-197" type="curve"/>
      <point x="529" y="-199" type="line" smooth="yes"/>
      <point x="529" y="-310"/>
      <point x="632" y="-363"/>
    </contour>
    <component base="e"/>
  </outline>
</glyph>
<glyph name="Hbar" format="2">
  <advance width="1341"/>
  <unicode hex="0126"/>
  <anchor x="671" y="0" name="bottom"/>
  <anchor x="671" y="639" name="center"/>
  <anchor x="671" y="1278" name="top"/>
  <anchor x="26" y="1278" name="topleft"/>
  <outline>
    <contour>
      <point x="16" y="956" type="line"/>
      <point x="1325" y="956" type="line"/>
      <point x="1325" y="1124" type="line"/>
      <point x="16" y="1124" type="line"/>
    </contour>
    <component base="H" xOffset="6"/>
  </outline>
</glyph>
<glyph name="hbar" format="2">
  <advance width="1168"/>
  <unicode hex="0127"/>
  <anchor x="591" y="0" name="bottom"/>
  <anchor x="591" y="657" name="center"/>
  <anchor x="280" y="1319" name="top"/>
  <outline>
    <contour>
      <point x="0" y="1064" type="line"/>
      <point x="746" y="1064" type="line"/>
      <point x="746" y="1221" type="line"/>
      <point x="0" y="1221" type="line"/>
    </contour>
    <component base="h" xOffset="12"/>
  </outline>
</glyph>
<glyph name="idotless" format="2">
  <advance width="538"/>
  <unicode hex="0131"/>
  <anchor x="269" y="0" name="bottom"/>
  <anchor x="476" y="0" name="ogonek"/>
  <anchor x="269" y="985" name="top"/>
  <outline>
    <contour>
      <point x="92" y="0" type="line"/>
      <point x="446" y="0" type="line"/>
      <point x="446" y="985" type="line"/>
      <point x="92" y="985" type="line"/>
    </contour>
  </outline>
</glyph>
<glyph name="kgreenlandic" format="2">
  <advance width="1110"/>
  <unicode hex="0138"/>
  <anchor x="561" y="0" name="bottom"/>
  <anchor x="561" y="985" name="top"/>
  <outline>
    <contour>
      <point x="717" y="0" type="line"/>
      <point x="1117" y="0" type="line"/>
      <point x="761" y="546" type="line"/>
      <point x="761" y="481" type="line"/>
      <point x="1096" y="985" type="line"/>
      <point x="708" y="985" type="line"/>
      <point x="459" y="591" type="line"/>
      <point x="405" y="591" type="line"/>
      <point x="405" y="407" type="line"/>
      <point x="459" y="407" type="line"/>
    </contour>
    <contour>
      <point x="92" y="0" type="line"/>
      <point x="446" y="0" type="line"/>
      <point x="446" y="985" type="line"/>
      <point x="92" y="985" type="line"/>
    </contour>
  </outline>
</glyph>
<glyph name="Lslash" format="2">
  <advance width="1045"/>
  <unicode hex="0141"/>
  <anchor x="545" y="0" name="bottom"/>
  <anchor x="472" y="639" name="center"/>
  <anchor x="302" y="1278" name="top"/>
  <anchor x="666" y="1278" name="topright"/>
  <outline>
    <contour>
      <point x="724" y="996" type="line"/>
      <point x="0" y="706" type="line"/>
      <point x="0" y="502" type="line"/>
      <point x="724" y="793" type="line"/>
    </contour>
    <component base="L" xOffset="16"/>
  </outline>
</glyph>
<glyph name="lslash" format="2">
  <advance width="558"/>
  <unicode hex="0142"/>
  <anchor x="280" y="0" name="bottom"/>
  <anchor x="280" y="657" name="center"/>
  <anchor x="280" y="1319" name="top"/>
  <anchor x="541" y="1319" name="topright"/>
  <outline>
    <contour>
      <point x="-11" y="403" type="line"/>
      <point x="569" y="766" type="line"/>
      <point x="569" y="988" type="line"/>
      <point x="-11" y="625" type="line"/>
    </contour>
    <component base="l" xOffset="10"/>
  </outline>
</glyph>
<glyph name="Eng" format="2">
  <advance width="1355"/>
  <unicode hex="014A"/>
  <outline>
    <contour>
      <point x="130" y="0" type="line"/>
      <point x="473" y="0" type="line"/>
      <point x="473" y="368" type="line"/>
      <point x="457" y="930" type="line"/>
      <point x="471" y="930" type="line"/>
      <point x="924" y="0" type="line"/>
      <point x="1028" y="0" type="line"/>
      <point x="1251" y="73" type="line"/>
      <point x="1251" y="1279" type="line"/>
      <point x="909" y="1279" type="line"/>
      <point x="909" y="929" type="line"/>
      <point x="922" y="603" type="line"/>
      <point x="908" y="603" type="line"/>
      <point x="599" y="1279" type="line"/>
      <point x="130" y="1279" type="line"/>
    </contour>
    <contour>
      <point x="875" y="-362" type="curve" smooth="yes"/>
      <point x="1156" y="-362"/>
      <point x="1251" y="-204"/>
      <point x="1251" y="31" type="curve" smooth="yes"/>
      <point x="1251" y="206" type="line"/>
      <point x="900" y="206" type="line"/>
      <point x="900" y="46" type="line" smooth="yes"/>
      <point x="900" y="-30"/>
      <point x="874" y="-77"/>
      <point x="770" y="-77" type="curve" smooth="yes"/>
      <point x="741" y="-77"/>
      <point x="711" y="-73"/>
      <point x="688" y="-66" type="curve"/>
      <point x="713" y="-345" type="line"/>
      <point x="754" y="-356"/>
      <point x="811" y="-362"/>
    </contour>
  </outline>
</glyph>
<glyph name="tcaron" format="2">
  <advance width="819"/>
  <unicode hex="0165"/>
  <anchor x="443" y="0" name="bottom"/>
  <anchor x="410" y="493" name="center"/>
  <anchor x="314" y="1214" name="top"/>
  <anchor x="584" y="1433" name="topright"/>
  <outline>
    <contour>
      <point x="834" y="1433" type="curve"/>
      <point x="582" y="1433" type="line"/>
      <point x="585" y="1398"/>
      <point x="586" y="1374"/>
      <point x="586" y="1343" type="curve" smooth="yes"/>
      <point x="586" y="1238"/>
      <point x="573" y="1152"/>
      <point x="551" y="1075" type="curve"/>
      <point x="738" y="1033" type="line"/>
      <point x="809" y="1127"/>
      <point x="841" y="1233"/>
      <point x="841" y="1357" type="curve" smooth="yes"/>
      <point x="841" y="1386"/>
      <point x="837" y="1413"/>
    </contour>
    <component base="t"/>
  </outline>
</glyph>
<glyph name="tbar" format="2">
  <advance width="819"/>
  <unicode hex="0167"/>
  <outline>
    <contour>
      <point x="498" y="-24" type="curve" smooth="yes"/>
      <point x="608" y="-24"/>
      <point x="699" y="-5"/>
      <point x="769" y="25" type="curve"/>
      <point x="799" y="315" type="line"/>
      <point x="749" y="296"/>
      <point x="686" y="280"/>
      <point x="625" y="280" type="curve" smooth="yes"/>
      <point x="512" y="280"/>
      <point x="482" y="318"/>
      <point x="482" y="403" type="curve" smooth="yes"/>
      <point x="482" y="872" type="line"/>
      <point x="131" y="872" type="line"/>
      <point x="131" y="343" type="line" smooth="yes"/>
      <point x="131" y="102"/>
      <point x="224" y="-24"/>
    </contour>
    <contour>
      <point x="18" y="425" type="line"/>
      <point x="748" y="425" type="line"/>
      <point x="748" y="619" type="line"/>
      <point x="18" y="619" type="line"/>
    </contour>
    <contour>
      <point x="8" y="718" type="line"/>
      <point x="759" y="718" type="line"/>
      <point x="789" y="985" type="line"/>
      <point x="8" y="985" type="line"/>
    </contour>
    <contour>
      <point x="136" y="961" type="line"/>
      <point x="472" y="961" type="line"/>
      <point x="484" y="1239" type="line"/>
      <point x="135" y="1208" type="line"/>
    </contour>
  </outline>
</glyph>
<glyph name="Uogonek" format="2">
  <advance width="1309"/>
  <unicode hex="0172"/>
  <anchor x="655" y="0" name="bottom"/>
  <anchor x="978" y="5" name="ogonek"/>
  <anchor x="655" y="1278" name="top"/>
  <anchor x="1303" y="1278" name="topright"/>
  <outline>
    <contour>
      <point x="808" y="-362" type="curve" smooth="yes"/>
      <point x="878" y="-362"/>
      <point x="938" y="-352"/>
      <point x="994" y="-332" type="curve"/>
      <point x="1023" y="-109" type="line"/>
      <point x="983" y="-119"/>
      <point x="942" y="-126"/>
      <point x="900" y="-126" type="curve" smooth="yes"/>
      <point x="833" y="-126"/>
      <point x="797" y="-113"/>
      <point x="797" y="-76" type="curve"/>
      <point x="797" y="-76" type="line"/>
      <point x="797" y="-44"/>
      <point x="824" y="-22"/>
      <point x="870" y="-9" type="curve"/>
      <point x="875" y="37" type="line"/>
      <point x="692" y="-25" type="line"/>
      <point x="692" y="-45" type="line"/>
      <point x="600" y="-74"/>
      <point x="555" y="-124"/>
      <point x="555" y="-202" type="curve"/>
      <point x="555" y="-204" type="line" smooth="yes"/>
      <point x="555" y="-312"/>
      <point x="658" y="-362"/>
    </contour>
    <component base="U"/>
  </outline>
</glyph>
<glyph name="Schwa" format="2">
  <advance width="1239"/>
  <unicode hex="018F"/>
  <anchor x="616" y="0" name="bottom"/>
  <anchor x="616" y="1278" name="top"/>
  <outline>
    <contour>
      <point x="607" y="-29" type="curve" smooth="yes"/>
      <point x="981" y="-29"/>
      <point x="1171" y="165"/>
      <point x="1171" y="527" type="curve" smooth="yes"/>
      <point x="1171" y="730" type="line" smooth="yes"/>
      <point x="1171" y="1107"/>
      <point x="970" y="1311"/>
      <point x="565" y="1311" type="curve" smooth="yes"/>
      <point x="382" y="1311"/>
      <point x="224" y="1275"/>
      <point x="119" y="1219" type="curve"/>
      <point x="88" y="923" type="line"/>
      <point x="198" y="967"/>
      <point x="333" y="1004"/>
      <point x="491" y="1004" type="curve" smooth="yes"/>
      <point x="722" y="1004"/>
      <point x="804" y="927"/>
      <point x="804" y="741" type="curve" smooth="yes"/>
      <point x="804" y="493" type="line" smooth="yes"/>
      <point x="804" y="344"/>
      <point x="745" y="269"/>
      <point x="607" y="269" type="curve" smooth="yes"/>
      <point x="477" y="269"/>
      <point x="411" y="336"/>
      <point x="411" y="476" type="curve"/>
      <point x="411" y="596" type="line"/>
      <point x="340" y="517" type="line"/>
      <point x="945" y="515" type="line"/>
      <point x="945" y="767" type="line"/>
      <point x="74" y="767" type="line"/>
      <point x="60" y="695"/>
      <point x="58" y="627"/>
      <point x="58" y="527" type="curve" smooth="yes"/>
      <point x="58" y="498" type="line" smooth="yes"/>
      <point x="58" y="160"/>
      <point x="244" y="-29"/>
    </contour>
  </outline>
</glyph>
<glyph name="florin" format="2">
  <advance width="932"/>
  <unicode hex="0192"/>
  <outline>
    <contour>
      <point x="38" y="663" type="line"/>
      <point x="832" y="663" type="line"/>
      <point x="851" y="940" type="line"/>
      <point x="57" y="940" type="line"/>
    </contour>
    <contour>
      <point x="904" y="1056" type="curve"/>
      <point x="889" y="1306" type="line"/>
      <point x="800" y="1337"/>
      <point x="716" y="1354"/>
      <point x="611" y="1354" type="curve" smooth="yes"/>
      <point x="318" y="1354"/>
      <point x="212" y="1228"/>
      <point x="193" y="966" type="curve" smooth="yes"/>
      <point x="100" y="-344" type="line"/>
      <point x="435" y="-344" type="line"/>
      <point x="527" y="949" type="line" smooth="yes"/>
      <point x="534" y="1049"/>
      <point x="572" y="1085"/>
      <point x="696" y="1085" type="curve" smooth="yes"/>
      <point x="769" y="1085"/>
      <point x="829" y="1076"/>
    </contour>
  </outline>
</glyph>
<glyph name="Oogonek" format="2">
  <advance width="1323"/>
  <unicode hex="01EA"/>
  <anchor x="647" y="0" name="bottom"/>
  <anchor x="647" y="639" name="center"/>
  <anchor x="992" y="5" name="ogonek"/>
  <anchor x="647" y="1278" name="top"/>
  <anchor x="5" y="1278" name="topleft"/>
  <anchor x="1235" y="1278" name="topright"/>
  <outline>
    <contour>
      <point x="806" y="-362" type="curve" smooth="yes"/>
      <point x="876" y="-362"/>
      <point x="936" y="-352"/>
      <point x="992" y="-332" type="curve"/>
      <point x="1021" y="-109" type="line"/>
      <point x="981" y="-119"/>
      <point x="940" y="-126"/>
      <point x="898" y="-126" type="curve" smooth="yes"/>
      <point x="831" y="-126"/>
      <point x="795" y="-113"/>
      <point x="795" y="-76" type="curve"/>
      <point x="795" y="-76" type="line"/>
      <point x="795" y="-44"/>
      <point x="822" y="-22"/>
      <point x="868" y="-9" type="curve"/>
      <point x="873" y="37" type="line"/>
      <point x="690" y="-25" type="line"/>
      <point x="690" y="-47" type="line"/>
      <point x="599" y="-77"/>
      <point x="553" y="-127"/>
      <point x="553" y="-203" type="curve"/>
      <point x="553" y="-205" type="line" smooth="yes"/>
      <point x="553" y="-312"/>
      <point x="656" y="-362"/>
    </contour>
    <component base="O"/>
  </outline>
</glyph>
<glyph name="oogonek" format="2">
  <advance width="1134"/>
  <unicode hex="01EB"/>
  <anchor x="557" y="0" name="bottom"/>
  <anchor x="557" y="493" name="center"/>
  <anchor x="857" y="10" name="ogonek"/>
  <anchor x="557" y="985" name="top"/>
  <anchor x="1101" y="985" name="topright"/>
  <outline>
    <contour>
      <point x="719" y="-363" type="curve" smooth="yes"/>
      <point x="784" y="-363"/>
      <point x="842" y="-354"/>
      <point x="893" y="-336" type="curve"/>
      <point x="923" y="-114" type="line"/>
      <point x="886" y="-123"/>
      <point x="846" y="-128"/>
      <point x="807" y="-128" type="curve" smooth="yes"/>
      <point x="745" y="-128"/>
      <point x="711" y="-114"/>
      <point x="711" y="-73" type="curve"/>
      <point x="711" y="-73" type="line"/>
      <point x="711" y="-35"/>
      <point x="734" y="-10"/>
      <point x="781" y="5" type="curve"/>
      <point x="783" y="22" type="line"/>
      <point x="605" y="-13" type="line"/>
      <point x="605" y="-39" type="line"/>
      <point x="510" y="-67"/>
      <point x="468" y="-116"/>
      <point x="468" y="-197" type="curve"/>
      <point x="468" y="-199" type="line" smooth="yes"/>
      <point x="468" y="-310"/>
      <point x="571" y="-363"/>
    </contour>
    <component base="o"/>
  </outline>
</glyph>
<glyph name="Odieresismacron" format="2">
  <advance width="1294"/>
  <unicode hex="022A"/>
  <anchor x="647" y="0" name="bottom"/>
  <anchor x="647" y="639" name="center"/>
  <anchor x="992" y="5" name="ogonek"/>
  <anchor x="647" y="1633" name="top"/>
  <anchor x="5" y="1278" name="topleft"/>
  <anchor x="1235" y="1278" name="topright"/>
  <outline>
    <contour>
      <point x="318" y="1740" type="line"/>
      <point x="975" y="1740" type="line"/>
      <point x="975" y="1945" type="line"/>
      <point x="318" y="1945" type="line"/>
    </contour>
    <component base="O"/>
    <component base="dieresiscomb.case" xOffset="209"/>
  </outline>
</glyph>
<glyph name="Otildemacron" format="2">
  <advance width="1294"/>
  <unicode hex="022C"/>
  <anchor x="647" y="1953.06" name="top"/>
  <anchor x="647" y="0" name="bottom"/>
  <anchor x="647" y="639" name="center"/>
  <anchor x="992" y="5" name="ogonek"/>
  <anchor x="5" y="1278" name="topleft"/>
  <anchor x="1235" y="1278" name="topright"/>
  <outline>
    <contour>
      <point x="318" y="1747" type="line"/>
      <point x="975" y="1747" type="line"/>
      <point x="975" y="1952" type="line"/>
      <point x="318" y="1952" type="line"/>
    </contour>
    <component base="O"/>
    <component base="tildecomb.case" xOffset="200"/>
  </outline>
</glyph>
<glyph name="otildemacron" format="2">
  <advance width="1112"/>
  <unicode hex="022D"/>
  <anchor x="558" y="1679.68" name="top"/>
  <anchor x="557" y="0" name="bottom"/>
  <anchor x="557" y="493" name="center"/>
  <anchor x="857" y="10" name="ogonek"/>
  <anchor x="1101" y="985" name="topright"/>
  <outline>
    <contour>
      <point x="229" y="1474" type="line"/>
      <point x="886" y="1474" type="line"/>
      <point x="886" y="1675" type="line"/>
      <point x="229" y="1675" type="line"/>
    </contour>
    <component base="o"/>
    <component base="tildecomb" xOffset="110"/>
  </outline>
</glyph>
<glyph name="Odotaccentmacron" format="2">
  <advance width="1294"/>
  <unicode hex="0230"/>
  <anchor x="647" y="0" name="bottom"/>
  <anchor x="647" y="639" name="center"/>
  <anchor x="992" y="5" name="ogonek"/>
  <anchor x="646" y="1633" name="top"/>
  <anchor x="5" y="1278" name="topleft"/>
  <anchor x="1235" y="1278" name="topright"/>
  <outline>
    <contour>
      <point x="317" y="1740" type="line"/>
      <point x="974" y="1740" type="line"/>
      <point x="974" y="1945" type="line"/>
      <point x="317" y="1945" type="line"/>
    </contour>
    <component base="O"/>
    <component base="dotaccentcomb.case" xOffset="372"/>
  </outline>
</glyph>
<glyph name="odotaccentmacron" format="2">
  <advance width="1112"/>
  <unicode hex="0231"/>
  <anchor x="558" y="1669.68" name="top"/>
  <anchor x="557" y="0" name="bottom"/>
  <anchor x="557" y="493" name="center"/>
  <anchor x="857" y="10" name="ogonek"/>
  <anchor x="1101" y="985" name="topright"/>
  <outline>
    <contour>
      <point x="229" y="1464" type="line"/>
      <point x="886" y="1464" type="line"/>
      <point x="886" y="1665" type="line"/>
      <point x="229" y="1665" type="line"/>
    </contour>
    <component base="o"/>
    <component base="dotaccentcomb" xOffset="282"/>
  </outline>
</glyph>
<glyph name="jdotless" format="2">
  <advance width="551"/>
  <unicode hex="0237"/>
  <anchor x="276" y="-344" name="bottom"/>
  <anchor x="276" y="985" name="top"/>
  <outline>
    <contour>
      <point x="105" y="172" type="line"/>
      <point x="459" y="172" type="line"/>
      <point x="459" y="985" type="line"/>
      <point x="105" y="985" type="line"/>
    </contour>
    <component base="jbottom"/>
  </outline>
</glyph>
<glyph name="schwa" format="2">
  <advance width="1080"/>
  <unicode hex="0259"/>
  <outline>
    <contour>
      <point x="534" y="-30" type="curve" smooth="yes"/>
      <point x="853" y="-30"/>
      <point x="1022" y="138"/>
      <point x="1022" y="452" type="curve" smooth="yes"/>
      <point x="1022" y="529" type="line" smooth="yes"/>
      <point x="1022" y="847"/>
      <point x="863" y="1014"/>
      <point x="514" y="1014" type="curve" smooth="yes"/>
      <point x="349" y="1014"/>
      <point x="208" y="985"/>
      <point x="109" y="936" type="curve"/>
      <point x="81" y="679" type="line"/>
      <point x="196" y="718"/>
      <point x="321" y="741"/>
      <point x="449" y="741" type="curve" smooth="yes"/>
      <point x="648" y="741"/>
      <point x="686" y="664"/>
      <point x="686" y="579" type="curve" smooth="yes"/>
      <point x="686" y="517" type="line"/>
      <point x="688" y="479" type="line"/>
      <point x="688" y="390" type="line" smooth="yes"/>
      <point x="688" y="287"/>
      <point x="642" y="228"/>
      <point x="534" y="228" type="curve" smooth="yes"/>
      <point x="426" y="228"/>
      <point x="380" y="284"/>
      <point x="380" y="389" type="curve" smooth="yes"/>
      <point x="380" y="446"/>
      <point x="382" y="520"/>
      <point x="387" y="601" type="curve"/>
      <point x="70" y="601" type="line"/>
      <point x="61" y="555"/>
      <point x="56" y="496"/>
      <point x="56" y="443" type="curve" smooth="yes"/>
      <point x="56" y="412" type="line" smooth="yes"/>
      <point x="56" y="133"/>
      <point x="216" y="-30"/>
    </contour>
    <contour>
      <point x="141" y="393" type="line"/>
      <point x="835" y="393" type="line"/>
      <point x="835" y="601" type="line"/>
      <point x="141" y="601" type="line"/>
    </contour>
  </outline>
</glyph>
<glyph name="primemod" format="2">
  <advance width="414"/>
  <unicode hex="02B9"/>
  <outline>
    <contour>
      <point x="328" y="865" type="line"/>
      <point x="361" y="1319" type="line"/>
      <point x="53" y="1319" type="line"/>
      <point x="84" y="865" type="line"/>
    </contour>
  </outline>
</glyph>
<glyph name="doubleprimemod" format="2">
  <advance width="800"/>
  <unicode hex="02BA"/>
  <outline>
    <contour>
      <point x="470" y="865" type="line"/>
      <point x="714" y="865" type="line"/>
      <point x="747" y="1319" type="line"/>
      <point x="439" y="1319" type="line"/>
    </contour>
    <contour>
      <point x="84" y="865" type="line"/>
      <point x="328" y="865" type="line"/>
      <point x="361" y="1319" type="line"/>
      <point x="53" y="1319" type="line"/>
    </contour>
  </outline>
</glyph>
<glyph name="commaturnedmod" format="2">
  <advance width="554"/>
  <unicode hex="02BB"/>
  <anchor x="277" y="985" name="_top"/>
  <anchor x="277" y="1395" name="top"/>
  <outline>
    <contour>
      <point x="125" y="1074" type="curve"/>
      <point x="419" y="1074" type="line"/>
      <point x="416" y="1106"/>
      <point x="415" y="1132"/>
      <point x="415" y="1161" type="curve" smooth="yes"/>
      <point x="415" y="1269"/>
      <point x="436" y="1352"/>
      <point x="473" y="1428" type="curve"/>
      <point x="245" y="1478" type="line"/>
      <point x="156" y="1384"/>
      <point x="119" y="1283"/>
      <point x="119" y="1158" type="curve" smooth="yes"/>
      <point x="119" y="1129"/>
      <point x="122" y="1098"/>
    </contour>
  </outline>
</glyph>
<glyph name="apostrophemod" format="2">
  <advance width="539"/>
  <unicode hex="02BC"/>
  <outline>
    <contour>
      <point x="419" y="1278" type="curve"/>
      <point x="133" y="1278" type="line"/>
      <point x="136" y="1238"/>
      <point x="138" y="1210"/>
      <point x="138" y="1174" type="curve" smooth="yes"/>
      <point x="138" y="1054"/>
      <point x="123" y="955"/>
      <point x="98" y="867" type="curve"/>
      <point x="310" y="819" type="line"/>
      <point x="391" y="927"/>
      <point x="427" y="1048"/>
      <point x="427" y="1190" type="curve" smooth="yes"/>
      <point x="427" y="1224"/>
      <point x="423" y="1255"/>
    </contour>
  </outline>
</glyph>
<glyph name="ringhalfright" format="2">
  <advance width="439"/>
  <unicode hex="02BE"/>
  <anchor x="100" y="985" name="_top"/>
  <anchor x="100" y="1414" name="top"/>
  <outline>
    <contour>
      <point x="100" y="1309" type="line"/>
      <point x="149" y="1309"/>
      <point x="175" y="1288"/>
      <point x="175" y="1251" type="curve" smooth="yes"/>
      <point x="175" y="1247" type="line" smooth="yes"/>
      <point x="175" y="1209"/>
      <point x="149" y="1187"/>
      <point x="100" y="1187" type="curve"/>
      <point x="100" y="1058" type="line"/>
      <point x="269" y="1058"/>
      <point x="339" y="1137"/>
      <point x="339" y="1245" type="curve" smooth="yes"/>
      <point x="339" y="1252" type="line" smooth="yes"/>
      <point x="339" y="1361"/>
      <point x="269" y="1439"/>
      <point x="100" y="1439" type="curve"/>
    </contour>
  </outline>
</glyph>
<glyph name="ringhalfleft" format="2">
  <advance width="439"/>
  <unicode hex="02BF"/>
  <anchor x="339" y="985" name="_top"/>
  <anchor x="339" y="1414" name="top"/>
  <outline>
    <contour>
      <point x="339" y="1309" type="curve"/>
      <point x="339" y="1439" type="line"/>
      <point x="170" y="1439"/>
      <point x="100" y="1361"/>
      <point x="100" y="1252" type="curve" smooth="yes"/>
      <point x="100" y="1245" type="line" smooth="yes"/>
      <point x="100" y="1137"/>
      <point x="170" y="1058"/>
      <point x="339" y="1058" type="curve"/>
      <point x="339" y="1187" type="line"/>
      <point x="290" y="1187"/>
      <point x="264" y="1209"/>
      <point x="264" y="1247" type="curve" smooth="yes"/>
      <point x="264" y="1251" type="line" smooth="yes"/>
      <point x="264" y="1288"/>
      <point x="290" y="1309"/>
    </contour>
  </outline>
</glyph>
<glyph name="verticallinemod" format="2">
  <advance width="477"/>
  <unicode hex="02C8"/>
  <anchor x="239" y="985" name="_top"/>
  <anchor x="239" y="1403" name="top"/>
  <outline>
    <contour>
      <point x="100" y="1081" type="line"/>
      <point x="377" y="1081" type="line"/>
      <point x="377" y="1461" type="line"/>
      <point x="100" y="1461" type="line"/>
    </contour>
  </outline>
</glyph>
<glyph name="brevecomb" format="2">
  <unicode hex="0306"/>
  <anchor x="438" y="985" name="_top"/>
  <anchor x="438" y="1370" name="top"/>
  <outline>
    <contour>
      <point x="438" y="1064" type="curve"/>
      <point x="672" y="1064"/>
      <point x="767" y="1180"/>
      <point x="770" y="1376" type="curve"/>
      <point x="547" y="1376" type="line"/>
      <point x="543" y="1306"/>
      <point x="511" y="1267"/>
      <point x="438" y="1267" type="curve" smooth="yes"/>
      <point x="363" y="1267"/>
      <point x="333" y="1308"/>
      <point x="329" y="1376" type="curve"/>
      <point x="106" y="1376" type="line"/>
      <point x="109" y="1180"/>
      <point x="206" y="1064"/>
    </contour>
  </outline>
</glyph>
<glyph name="hookabovecomb" format="2">
  <unicode hex="0309"/>
  <anchor x="218" y="985" name="_top"/>
  <anchor x="238" y="1442" name="top"/>
  <outline>
    <contour>
      <point x="141" y="1061" type="curve"/>
      <point x="114" y="1215" type="line"/>
      <point x="185" y="1227"/>
      <point x="219" y="1241"/>
      <point x="219" y="1274" type="curve" smooth="yes"/>
      <point x="219" y="1299"/>
      <point x="203" y="1311"/>
      <point x="164" y="1311" type="curve" smooth="yes"/>
      <point x="133" y="1311"/>
      <point x="103" y="1304"/>
      <point x="75" y="1294" type="curve"/>
      <point x="87" y="1453" type="line"/>
      <point x="124" y="1466"/>
      <point x="175" y="1477"/>
      <point x="236" y="1477" type="curve" smooth="yes"/>
      <point x="371" y="1477"/>
      <point x="451" y="1417"/>
      <point x="451" y="1297" type="curve" smooth="yes"/>
      <point x="451" y="1150"/>
      <point x="335" y="1081"/>
    </contour>
  </outline>
</glyph>
<glyph name="hungarumlautcomb" format="2">
  <unicode hex="030B"/>
  <anchor x="399" y="985" name="_top"/>
  <anchor x="538" y="1371" name="top"/>
  <outline>
    <contour>
      <point x="571" y="1376" type="line"/>
      <point x="450" y="1077" type="line"/>
      <point x="450" y="1075" type="line"/>
      <point x="686" y="1075" type="line"/>
      <point x="872" y="1371" type="line"/>
      <point x="872" y="1376" type="line"/>
    </contour>
    <contour>
      <point x="214" y="1376" type="line"/>
      <point x="93" y="1077" type="line"/>
      <point x="93" y="1075" type="line"/>
      <point x="331" y="1075" type="line"/>
      <point x="515" y="1371" type="line"/>
      <point x="515" y="1376" type="line"/>
    </contour>
  </outline>
</glyph>
<glyph name="caroncomb" format="2">
  <unicode hex="030C"/>
  <anchor x="456" y="985" name="_top"/>
  <anchor x="456" y="1355" name="top"/>
  <outline>
    <contour>
      <point x="273" y="1075" type="line"/>
      <point x="638" y="1075" type="line"/>
      <point x="811" y="1371" type="line"/>
      <point x="811" y="1376" type="line"/>
      <point x="555" y="1376" type="line"/>
      <point x="460" y="1241" type="line"/>
      <point x="451" y="1241" type="line"/>
      <point x="358" y="1376" type="line"/>
      <point x="100" y="1376" type="line"/>
      <point x="100" y="1371" type="line"/>
    </contour>
  </outline>
</glyph>
<glyph name="dblgravecomb" format="2">
  <unicode hex="030F"/>
  <anchor x="580" y="985" name="_top"/>
  <anchor x="441" y="1376" name="top"/>
  <outline>
    <contour>
      <point x="408" y="1376" type="line"/>
      <point x="107" y="1376" type="line"/>
      <point x="107" y="1371" type="line"/>
      <point x="293" y="1075" type="line"/>
      <point x="529" y="1075" type="line"/>
      <point x="529" y="1077" type="line"/>
    </contour>
    <contour>
      <point x="765" y="1376" type="line"/>
      <point x="464" y="1376" type="line"/>
      <point x="464" y="1371" type="line"/>
      <point x="648" y="1075" type="line"/>
      <point x="886" y="1075" type="line"/>
      <point x="886" y="1077" type="line"/>
    </contour>
  </outline>
</glyph>
<glyph name="breveinvertedcomb" format="2">
  <unicode hex="0311"/>
  <anchor x="438" y="985" name="_top"/>
  <anchor x="438" y="1375" name="top"/>
  <outline>
    <contour>
      <point x="438" y="1387" type="curve"/>
      <point x="206" y="1387"/>
      <point x="109" y="1271"/>
      <point x="106" y="1075" type="curve"/>
      <point x="329" y="1075" type="line"/>
      <point x="333" y="1143"/>
      <point x="363" y="1184"/>
      <point x="438" y="1184" type="curve" smooth="yes"/>
      <point x="511" y="1184"/>
      <point x="543" y="1145"/>
      <point x="547" y="1075" type="curve"/>
      <point x="770" y="1075" type="line"/>
      <point x="767" y="1271"/>
      <point x="672" y="1387"/>
    </contour>
  </outline>
</glyph>
<glyph name="commaturnedabovecomb" format="2">
  <unicode hex="0312"/>
  <anchor x="277" y="985" name="_top"/>
  <anchor x="277" y="1435" name="top"/>
  <outline>
    <contour>
      <point x="126" y="1073" type="curve"/>
      <point x="417" y="1073" type="line"/>
      <point x="414" y="1105"/>
      <point x="413" y="1131"/>
      <point x="413" y="1160" type="curve" smooth="yes"/>
      <point x="413" y="1268"/>
      <point x="434" y="1351"/>
      <point x="471" y="1427" type="curve"/>
      <point x="245" y="1477" type="line"/>
      <point x="157" y="1383"/>
      <point x="120" y="1282"/>
      <point x="120" y="1157" type="curve" smooth="yes"/>
      <point x="120" y="1128"/>
      <point x="123" y="1097"/>
    </contour>
  </outline>
</glyph>
<glyph name="horncomb" format="2">
  <unicode hex="031B"/>
  <anchor x="377" y="985" name="_topright"/>
  <anchor x="490" y="1199" name="topright"/>
  <outline>
    <contour>
      <point x="205" y="840" type="line"/>
      <point x="395" y="884"/>
      <point x="470" y="971"/>
      <point x="470" y="1107" type="curve" smooth="yes"/>
      <point x="470" y="1140"/>
      <point x="466" y="1174"/>
      <point x="459" y="1199" type="curve"/>
      <point x="163" y="1199" type="line"/>
      <point x="166" y="1177"/>
      <point x="169" y="1149"/>
      <point x="169" y="1125" type="curve" smooth="yes"/>
      <point x="169" y="1062"/>
      <point x="152" y="1008"/>
      <point x="99" y="975" type="curve"/>
    </contour>
  </outline>
</glyph>
<glyph name="dotbelowcomb" format="2">
  <unicode hex="0323"/>
  <anchor x="275" y="0" name="_bottom"/>
  <anchor x="275" y="-414" name="bottom"/>
  <outline>
    <contour>
      <point x="274" y="-401" type="curve" smooth="yes"/>
      <point x="393" y="-401"/>
      <point x="450" y="-340"/>
      <point x="450" y="-242" type="curve" smooth="yes"/>
      <point x="450" y="-235" type="line" smooth="yes"/>
      <point x="450" y="-136"/>
      <point x="393" y="-73"/>
      <point x="274" y="-73" type="curve" smooth="yes"/>
      <point x="157" y="-73"/>
      <point x="100" y="-136"/>
      <point x="100" y="-235" type="curve" smooth="yes"/>
      <point x="100" y="-242" type="line" smooth="yes"/>
      <point x="100" y="-340"/>
      <point x="157" y="-401"/>
    </contour>
  </outline>
</glyph>
<glyph name="commaaccentcomb" format="2">
  <unicode hex="0326"/>
  <anchor x="277" y="0" name="_bottom"/>
  <anchor x="277" y="-496" name="bottom"/>
  <outline>
    <contour>
      <point x="429" y="-90" type="curve"/>
      <point x="135" y="-90" type="line"/>
      <point x="138" y="-122"/>
      <point x="139" y="-148"/>
      <point x="139" y="-177" type="curve" smooth="yes"/>
      <point x="139" y="-285"/>
      <point x="118" y="-368"/>
      <point x="81" y="-444" type="curve"/>
      <point x="309" y="-494" type="line"/>
      <point x="398" y="-400"/>
      <point x="435" y="-299"/>
      <point x="435" y="-174" type="curve" smooth="yes"/>
      <point x="435" y="-145"/>
      <point x="432" y="-114"/>
    </contour>
  </outline>
</glyph>
<glyph name="ogonekcomb" format="2">
  <unicode hex="0328"/>
  <anchor x="584" y="0" name="_ogonek"/>
  <outline>
    <contour>
      <point x="399" y="-363" type="curve" smooth="yes"/>
      <point x="462" y="-363"/>
      <point x="515" y="-354"/>
      <point x="564" y="-335" type="curve"/>
      <point x="593" y="-115" type="line"/>
      <point x="559" y="-123"/>
      <point x="525" y="-128"/>
      <point x="488" y="-128" type="curve" smooth="yes"/>
      <point x="431" y="-128"/>
      <point x="400" y="-114"/>
      <point x="400" y="-75" type="curve"/>
      <point x="400" y="-75" type="line"/>
      <point x="400" y="-36"/>
      <point x="441" y="-9"/>
      <point x="523" y="0" type="curve"/>
      <point x="523" y="20" type="line"/>
      <point x="305" y="20" type="line"/>
      <point x="305" y="-10" type="line"/>
      <point x="215" y="-39"/>
      <point x="157" y="-95"/>
      <point x="157" y="-188" type="curve"/>
      <point x="157" y="-189" type="line" smooth="yes"/>
      <point x="157" y="-307"/>
      <point x="254" y="-363"/>
    </contour>
  </outline>
</glyph>
<glyph name="strokeshortcomb" format="2">
  <unicode hex="0335"/>
  <anchor x="434" y="646" name="_center"/>
  <outline>
    <contour>
      <point x="102" y="551" type="line"/>
      <point x="765" y="550" type="line"/>
      <point x="765" y="741" type="line"/>
      <point x="102" y="742" type="line"/>
    </contour>
  </outline>
</glyph>
<glyph name="pi" format="2">
  <advance width="1250"/>
  <unicode hex="03C0"/>
  <outline>
    <contour>
      <point x="47" y="708" type="line"/>
      <point x="1174" y="708" type="line"/>
      <point x="1203" y="985" type="line"/>
      <point x="47" y="985" type="line"/>
    </contour>
    <contour>
      <point x="180" y="0" type="line"/>
      <point x="531" y="0" type="line"/>
      <point x="531" y="872" type="line"/>
      <point x="180" y="872" type="line"/>
    </contour>
    <contour>
      <point x="703" y="-1" type="line"/>
      <point x="1054" y="-1" type="line"/>
      <point x="1054" y="871" type="line"/>
      <point x="703" y="871" type="line"/>
    </contour>
  </outline>
</glyph>
<glyph name="llinebelow" format="2">
  <advance width="538"/>
  <unicode hex="1E3B"/>
  <anchor x="270.53" y="-312" name="bottom"/>
  <anchor x="270" y="657" name="center"/>
  <anchor x="270" y="1319" name="top"/>
  <anchor x="531" y="1319" name="topright"/>
  <outline>
    <contour>
      <point x="-16" y="-318" type="line"/>
      <point x="556" y="-318" type="line"/>
      <point x="556" y="-109" type="line"/>
      <point x="-16" y="-109" type="line"/>
    </contour>
    <component base="l"/>
  </outline>
</glyph>
<glyph name="Otildedieresis" format="2">
  <advance width="1294"/>
  <unicode hex="1E4E"/>
  <anchor x="647" y="1980.68" name="top"/>
  <anchor x="647" y="0" name="bottom"/>
  <anchor x="647" y="639" name="center"/>
  <anchor x="992" y="5" name="ogonek"/>
  <anchor x="5" y="1278" name="topleft"/>
  <anchor x="1235" y="1278" name="topright"/>
  <outline>
    <contour>
      <point x="464" y="1720" type="curve" smooth="yes"/>
      <point x="570" y="1720"/>
      <point x="621" y="1774"/>
      <point x="621" y="1867" type="curve" smooth="yes"/>
      <point x="621" y="1875" type="line" smooth="yes"/>
      <point x="621" y="1969"/>
      <point x="570" y="2025"/>
      <point x="464" y="2025" type="curve" smooth="yes"/>
      <point x="360" y="2025"/>
      <point x="309" y="1969"/>
      <point x="309" y="1875" type="curve" smooth="yes"/>
      <point x="309" y="1867" type="line" smooth="yes"/>
      <point x="309" y="1774"/>
      <point x="360" y="1720"/>
    </contour>
    <contour>
      <point x="829" y="1720" type="curve" smooth="yes"/>
      <point x="933" y="1720"/>
      <point x="985" y="1774"/>
      <point x="985" y="1867" type="curve" smooth="yes"/>
      <point x="985" y="1875" type="line" smooth="yes"/>
      <point x="985" y="1969"/>
      <point x="933" y="2025"/>
      <point x="829" y="2025" type="curve" smooth="yes"/>
      <point x="724" y="2025"/>
      <point x="674" y="1969"/>
      <point x="674" y="1875" type="curve" smooth="yes"/>
      <point x="674" y="1867" type="line" smooth="yes"/>
      <point x="674" y="1774"/>
      <point x="723" y="1720"/>
    </contour>
    <component base="O"/>
    <component base="tildecomb.case" xOffset="200"/>
  </outline>
</glyph>
<glyph name="otildedieresis" format="2">
  <advance width="1112"/>
  <unicode hex="1E4F"/>
  <anchor x="557" y="1729.6" name="top"/>
  <anchor x="557" y="0" name="bottom"/>
  <anchor x="557" y="493" name="center"/>
  <anchor x="857" y="10" name="ogonek"/>
  <anchor x="1101" y="985" name="topright"/>
  <outline>
    <contour>
      <point x="374" y="1444" type="curve" smooth="yes"/>
      <point x="480" y="1444"/>
      <point x="531" y="1498"/>
      <point x="531" y="1591" type="curve" smooth="yes"/>
      <point x="531" y="1599" type="line" smooth="yes"/>
      <point x="531" y="1693"/>
      <point x="480" y="1749"/>
      <point x="374" y="1749" type="curve" smooth="yes"/>
      <point x="270" y="1749"/>
      <point x="219" y="1693"/>
      <point x="219" y="1599" type="curve" smooth="yes"/>
      <point x="219" y="1591" type="line" smooth="yes"/>
      <point x="219" y="1498"/>
      <point x="270" y="1444"/>
    </contour>
    <contour>
      <point x="739" y="1444" type="curve" smooth="yes"/>
      <point x="843" y="1444"/>
      <point x="895" y="1498"/>
      <point x="895" y="1591" type="curve" smooth="yes"/>
      <point x="895" y="1599" type="line" smooth="yes"/>
      <point x="895" y="1693"/>
      <point x="843" y="1749"/>
      <point x="739" y="1749" type="curve" smooth="yes"/>
      <point x="634" y="1749"/>
      <point x="584" y="1693"/>
      <point x="584" y="1599" type="curve" smooth="yes"/>
      <point x="584" y="1591" type="line" smooth="yes"/>
      <point x="584" y="1498"/>
      <point x="633" y="1444"/>
    </contour>
    <component base="o"/>
    <component base="tildecomb" xOffset="110"/>
  </outline>
</glyph>
<glyph name="Sacutedotaccent" format="2">
  <advance width="1093"/>
  <unicode hex="1E64"/>
  <anchor x="537" y="1992.34" name="top"/>
  <anchor x="538" y="0" name="bottom"/>
  <outline>
    <contour>
      <point x="537" y="1730" type="curve" smooth="yes"/>
      <point x="651" y="1730"/>
      <point x="706" y="1787"/>
      <point x="706" y="1879" type="curve" smooth="yes"/>
      <point x="706" y="1885" type="line" smooth="yes"/>
      <point x="706" y="1977"/>
      <point x="651" y="2034"/>
      <point x="537" y="2034" type="curve" smooth="yes"/>
      <point x="425" y="2034"/>
      <point x="370" y="1977"/>
      <point x="370" y="1885" type="curve" smooth="yes"/>
      <point x="370" y="1879" type="line" smooth="yes"/>
      <point x="370" y="1787"/>
      <point x="425" y="1730"/>
    </contour>
    <component base="S"/>
    <component base="acutecomb.case" xOffset="279"/>
  </outline>
</glyph>
<glyph name="sacutedotaccent" format="2">
  <advance width="950"/>
  <unicode hex="1E65"/>
  <anchor x="470" y="1729.6" name="top"/>
  <anchor x="472" y="0" name="bottom"/>
  <outline>
    <contour>
      <point x="469" y="1439" type="curve" smooth="yes"/>
      <point x="583" y="1439"/>
      <point x="638" y="1497"/>
      <point x="638" y="1591" type="curve" smooth="yes"/>
      <point x="638" y="1598" type="line" smooth="yes"/>
      <point x="638" y="1693"/>
      <point x="583" y="1754"/>
      <point x="469" y="1754" type="curve" smooth="yes"/>
      <point x="357" y="1754"/>
      <point x="302" y="1693"/>
      <point x="302" y="1598" type="curve" smooth="yes"/>
      <point x="302" y="1591" type="line" smooth="yes"/>
      <point x="302" y="1497"/>
      <point x="357" y="1439"/>
    </contour>
    <component base="s"/>
    <component base="acutecomb" xOffset="227"/>
  </outline>
</glyph>
<glyph name="Scarondotaccent" format="2">
  <advance width="1093"/>
  <unicode hex="1E66"/>
  <anchor x="537" y="1982.34" name="top"/>
  <anchor x="538" y="0" name="bottom"/>
  <outline>
    <contour>
      <point x="537" y="1720" type="curve" smooth="yes"/>
      <point x="651" y="1720"/>
      <point x="706" y="1777"/>
      <point x="706" y="1869" type="curve" smooth="yes"/>
      <point x="706" y="1875" type="line" smooth="yes"/>
      <point x="706" y="1967"/>
      <point x="651" y="2024"/>
      <point x="537" y="2024" type="curve" smooth="yes"/>
      <point x="425" y="2024"/>
      <point x="370" y="1967"/>
      <point x="370" y="1875" type="curve" smooth="yes"/>
      <point x="370" y="1869" type="line" smooth="yes"/>
      <point x="370" y="1777"/>
      <point x="425" y="1720"/>
    </contour>
    <component base="S"/>
    <component base="caroncomb.case" xOffset="62"/>
  </outline>
</glyph>
<glyph name="scarondotaccent" format="2">
  <advance width="950"/>
  <unicode hex="1E67"/>
  <anchor x="470" y="1714.6" name="top"/>
  <anchor x="472" y="0" name="bottom"/>
  <outline>
    <contour>
      <point x="469" y="1424" type="curve" smooth="yes"/>
      <point x="583" y="1424"/>
      <point x="638" y="1482"/>
      <point x="638" y="1576" type="curve" smooth="yes"/>
      <point x="638" y="1583" type="line" smooth="yes"/>
      <point x="638" y="1678"/>
      <point x="583" y="1739"/>
      <point x="469" y="1739" type="curve" smooth="yes"/>
      <point x="357" y="1739"/>
      <point x="302" y="1678"/>
      <point x="302" y="1583" type="curve" smooth="yes"/>
      <point x="302" y="1576" type="line" smooth="yes"/>
      <point x="302" y="1482"/>
      <point x="357" y="1424"/>
    </contour>
    <component base="s"/>
    <component base="caroncomb" xOffset="14"/>
  </outline>
</glyph>
<glyph name="Ohorntilde" format="2">
  <advance width="1294"/>
  <unicode hex="1EE0"/>
  <anchor x="646.65" y="1640" name="top"/>
  <anchor x="647" y="0" name="bottom"/>
  <anchor x="647" y="639" name="center"/>
  <anchor x="992" y="5" name="ogonek"/>
  <anchor x="5" y="1278" name="topleft"/>
  <anchor x="1356" y="1494" name="topright"/>
  <outline>
    <contour>
      <point x="776" y="1380" type="curve" smooth="yes"/>
      <point x="924" y="1380"/>
      <point x="976" y="1479"/>
      <point x="976" y="1621" type="curve" smooth="yes"/>
      <point x="976" y="1655" type="line"/>
      <point x="794" y="1655" type="line"/>
      <point x="794" y="1654" type="line"/>
      <point x="793" y="1613"/>
      <point x="782" y="1593"/>
      <point x="745" y="1593" type="curve" smooth="yes"/>
      <point x="688" y="1593"/>
      <point x="615" y="1642"/>
      <point x="519" y="1642" type="curve" smooth="yes"/>
      <point x="369" y="1642"/>
      <point x="317" y="1542"/>
      <point x="317" y="1406" type="curve" smooth="yes"/>
      <point x="317" y="1367" type="line"/>
      <point x="498" y="1367" type="line"/>
      <point x="498" y="1368" type="line"/>
      <point x="499" y="1409"/>
      <point x="511" y="1429"/>
      <point x="548" y="1429" type="curve" smooth="yes"/>
      <point x="607" y="1429"/>
      <point x="685" y="1380"/>
    </contour>
    <component base="Ohorn"/>
  </outline>
</glyph>
<glyph name="Uhorntilde" format="2">
  <advance width="1309"/>
  <unicode hex="1EEE"/>
  <anchor x="654.65" y="1640" name="top"/>
  <anchor x="655" y="0" name="bottom"/>
  <anchor x="978" y="5" name="ogonek"/>
  <anchor x="1397" y="1494" name="topright"/>
  <outline>
    <contour>
      <point x="784" y="1380" type="curve" smooth="yes"/>
      <point x="932" y="1380"/>
      <point x="984" y="1479"/>
      <point x="984" y="1621" type="curve" smooth="yes"/>
      <point x="984" y="1655" type="line"/>
      <point x="802" y="1655" type="line"/>
      <point x="802" y="1654" type="line"/>
      <point x="801" y="1613"/>
      <point x="790" y="1593"/>
      <point x="753" y="1593" type="curve" smooth="yes"/>
      <point x="696" y="1593"/>
      <point x="623" y="1642"/>
      <point x="527" y="1642" type="curve" smooth="yes"/>
      <point x="377" y="1642"/>
      <point x="325" y="1542"/>
      <point x="325" y="1406" type="curve" smooth="yes"/>
      <point x="325" y="1367" type="line"/>
      <point x="506" y="1367" type="line"/>
      <point x="506" y="1368" type="line"/>
      <point x="507" y="1409"/>
      <point x="519" y="1429"/>
      <point x="556" y="1429" type="curve" smooth="yes"/>
      <point x="615" y="1429"/>
      <point x="693" y="1380"/>
    </contour>
    <component base="Uhorn"/>
  </outline>
</glyph>
<glyph name="dagger" format="2">
  <advance width="972"/>
  <unicode hex="2020"/>
  <outline>
    <contour>
      <point x="57" y="708" type="line"/>
      <point x="488" y="718" type="line"/>
      <point x="915" y="708" type="line"/>
      <point x="915" y="985" type="line"/>
      <point x="486" y="975" type="line"/>
      <point x="57" y="985" type="line"/>
    </contour>
    <contour>
      <point x="304" y="565" type="line"/>
      <point x="304" y="261" type="line"/>
      <point x="389" y="-335" type="line"/>
      <point x="582" y="-335" type="line"/>
      <point x="667" y="261" type="line"/>
      <point x="667" y="565" type="line"/>
      <point x="652" y="828" type="line"/>
      <point x="652" y="867" type="line"/>
      <point x="667" y="1278" type="line"/>
      <point x="304" y="1278" type="line"/>
      <point x="319" y="867" type="line"/>
      <point x="319" y="828" type="line"/>
    </contour>
  </outline>
</glyph>
<glyph name="daggerdbl" format="2">
  <advance width="994"/>
  <unicode hex="2021"/>
  <outline>
    <contour>
      <point x="68" y="708" type="line"/>
      <point x="499" y="718" type="line"/>
      <point x="926" y="708" type="line"/>
      <point x="926" y="985" type="line"/>
      <point x="497" y="975" type="line"/>
      <point x="68" y="985" type="line"/>
    </contour>
    <contour>
      <point x="68" y="236" type="line"/>
      <point x="68" y="-41" type="line"/>
      <point x="497" y="-31" type="line"/>
      <point x="926" y="-41" type="line"/>
      <point x="926" y="236" type="line"/>
      <point x="499" y="226" type="line"/>
    </contour>
    <contour>
      <point x="315" y="-335" type="line"/>
      <point x="678" y="-335" type="line"/>
      <point x="663" y="77" type="line"/>
      <point x="663" y="116" type="line"/>
      <point x="678" y="381" type="line"/>
      <point x="678" y="563" type="line"/>
      <point x="663" y="828" type="line"/>
      <point x="663" y="867" type="line"/>
      <point x="678" y="1278" type="line"/>
      <point x="315" y="1278" type="line"/>
      <point x="330" y="867" type="line"/>
      <point x="330" y="828" type="line"/>
      <point x="315" y="565" type="line"/>
      <point x="315" y="381" type="line"/>
      <point x="330" y="116" type="line"/>
      <point x="330" y="77" type="line"/>
    </contour>
  </outline>
</glyph>
<glyph name="perthousand" format="2">
  <advance width="2295"/>
  <unicode hex="2030"/>
  <outline>
    <contour>
      <point x="1926" y="-35" type="curve" smooth="yes"/>
      <point x="2128" y="-35"/>
      <point x="2240" y="76"/>
      <point x="2240" y="279" type="curve" smooth="yes"/>
      <point x="2240" y="341" type="line" smooth="yes"/>
      <point x="2240" y="545"/>
      <point x="2128" y="654"/>
      <point x="1926" y="654" type="curve" smooth="yes"/>
      <point x="1723" y="654"/>
      <point x="1612" y="545"/>
      <point x="1612" y="341" type="curve" smooth="yes"/>
      <point x="1612" y="279" type="line" smooth="yes"/>
      <point x="1612" y="74"/>
      <point x="1723" y="-35"/>
    </contour>
    <contour>
      <point x="1926" y="156" type="curve" smooth="yes"/>
      <point x="1870" y="156"/>
      <point x="1843" y="192"/>
      <point x="1843" y="264" type="curve" smooth="yes"/>
      <point x="1843" y="355" type="line" smooth="yes"/>
      <point x="1843" y="427"/>
      <point x="1870" y="463"/>
      <point x="1926" y="463" type="curve" smooth="yes"/>
      <point x="1982" y="463"/>
      <point x="2009" y="427"/>
      <point x="2009" y="355" type="curve" smooth="yes"/>
      <point x="2009" y="264" type="line" smooth="yes"/>
      <point x="2009" y="192"/>
      <point x="1982" y="156"/>
    </contour>
    <component base="percent"/>
  </outline>
</glyph>
<glyph name="minute" format="2">
  <advance width="442"/>
  <unicode hex="2032"/>
  <outline>
    <contour>
      <point x="327" y="791" type="line"/>
      <point x="417" y="1319" type="line"/>
      <point x="82" y="1319" type="line"/>
      <point x="62" y="791" type="line"/>
    </contour>
  </outline>
</glyph>
<glyph name="colonsign" format="2">
  <advance width="1052"/>
  <unicode hex="20A1"/>
  <anchor x="566" y="0" name="bottom"/>
  <anchor x="566" y="1278" name="top"/>
  <outline>
    <contour>
      <point x="241" y="-199" type="line"/>
      <point x="408" y="-199" type="line"/>
      <point x="490" y="166" type="line"/>
      <point x="323" y="166" type="line"/>
    </contour>
    <contour>
      <point x="463" y="-199" type="line"/>
      <point x="630" y="-199" type="line"/>
      <point x="712" y="166" type="line"/>
      <point x="545" y="166" type="line"/>
    </contour>
    <contour>
      <point x="408" y="1161" type="line"/>
      <point x="575" y="1161" type="line"/>
      <point x="644" y="1474" type="line"/>
      <point x="477" y="1474" type="line"/>
    </contour>
    <contour>
      <point x="630" y="1161" type="line"/>
      <point x="797" y="1161" type="line"/>
      <point x="867" y="1474" type="line"/>
      <point x="700" y="1474" type="line"/>
    </contour>
    <component base="C"/>
  </outline>
</glyph>
<glyph name="franc" format="2">
  <advance width="1092"/>
  <unicode hex="20A3"/>
  <outline>
    <contour>
      <point x="140" y="0" type="line"/>
      <point x="500" y="0" type="line"/>
      <point x="500" y="1278" type="line"/>
      <point x="140" y="1278" type="line"/>
    </contour>
    <contour>
      <point x="6" y="148" type="line"/>
      <point x="873" y="148" type="line"/>
      <point x="888" y="338" type="line"/>
      <point x="22" y="338" type="line"/>
    </contour>
    <contour>
      <point x="348" y="468" type="line"/>
      <point x="1012" y="468" type="line"/>
      <point x="1012" y="772" type="line"/>
      <point x="348" y="772" type="line"/>
    </contour>
    <contour>
      <point x="245" y="973" type="line"/>
      <point x="1028" y="973" type="line"/>
      <point x="1028" y="1278" type="line"/>
      <point x="245" y="1278" type="line"/>
    </contour>
  </outline>
</glyph>
<glyph name="lira" format="2">
  <advance width="1105"/>
  <unicode hex="20A4"/>
  <outline>
    <contour>
      <point x="402" y="304" type="line"/>
      <point x="402" y="315" type="line"/>
      <point x="554" y="344"/>
      <point x="610" y="400"/>
      <point x="610" y="527" type="curve" smooth="yes"/>
      <point x="610" y="625"/>
      <point x="557" y="745"/>
      <point x="557" y="853" type="curve" smooth="yes"/>
      <point x="557" y="948"/>
      <point x="592" y="1002"/>
      <point x="765" y="1002" type="curve" smooth="yes"/>
      <point x="850" y="1002"/>
      <point x="927" y="991"/>
      <point x="1010" y="972" type="curve"/>
      <point x="984" y="1270" type="line"/>
      <point x="893" y="1294"/>
      <point x="776" y="1307"/>
      <point x="664" y="1307" type="curve" smooth="yes"/>
      <point x="324" y="1307"/>
      <point x="179" y="1178"/>
      <point x="179" y="924" type="curve" smooth="yes"/>
      <point x="179" y="782"/>
      <point x="238" y="610"/>
      <point x="238" y="486" type="curve" smooth="yes"/>
      <point x="238" y="392"/>
      <point x="209" y="338"/>
      <point x="138" y="311" type="curve" smooth="yes"/>
      <point x="81" y="289" type="line"/>
      <point x="81" y="0" type="line"/>
      <point x="1061" y="0" type="line"/>
      <point x="1061" y="304" type="line"/>
    </contour>
    <contour>
      <point x="86" y="878" type="line"/>
      <point x="70" y="688" type="line"/>
      <point x="931" y="688" type="line"/>
      <point x="946" y="878" type="line"/>
    </contour>
    <contour>
      <point x="86" y="598" type="line"/>
      <point x="70" y="408" type="line"/>
      <point x="931" y="408" type="line"/>
      <point x="946" y="598" type="line"/>
    </contour>
  </outline>
</glyph>
<glyph name="naira" format="2">
  <advance width="1401"/>
  <unicode hex="20A6"/>
  <outline>
    <contour>
      <point x="140" y="0" type="line"/>
      <point x="483" y="0" type="line"/>
      <point x="483" y="328" type="line"/>
      <point x="453" y="981" type="line"/>
      <point x="470" y="981" type="line"/>
      <point x="586" y="655" type="line"/>
      <point x="837" y="654" type="line"/>
      <point x="625" y="1279" type="line"/>
      <point x="140" y="1279" type="line"/>
    </contour>
    <contour>
      <point x="5" y="554" type="line"/>
      <point x="1380" y="554" type="line"/>
      <point x="1396" y="775" type="line"/>
      <point x="21" y="775" type="line"/>
    </contour>
    <contour>
      <point x="792" y="0" type="line"/>
      <point x="1261" y="0" type="line"/>
      <point x="1261" y="1279" type="line"/>
      <point x="918" y="1279" type="line"/>
      <point x="918" y="969" type="line"/>
      <point x="948" y="324" type="line"/>
      <point x="931" y="324" type="line"/>
      <point x="818" y="650" type="line"/>
      <point x="566" y="651" type="line"/>
    </contour>
  </outline>
</glyph>
<glyph name="won" format="2">
  <advance width="1769"/>
  <unicode hex="20A9"/>
  <outline>
    <contour>
      <point x="250" y="0" type="line"/>
      <point x="749" y="0" type="line"/>
      <point x="837" y="649" type="line"/>
      <point x="599" y="649" type="line"/>
      <point x="563" y="406" type="line"/>
      <point x="541" y="262" type="line"/>
      <point x="525" y="262" type="line"/>
      <point x="508" y="406" type="line"/>
      <point x="405" y="1278" type="line"/>
      <point x="39" y="1278" type="line"/>
    </contour>
    <contour>
      <point x="1020" y="0" type="line"/>
      <point x="1519" y="0" type="line"/>
      <point x="1728" y="1278" type="line"/>
      <point x="1365" y="1278" type="line"/>
      <point x="1260" y="405" type="line"/>
      <point x="1242" y="262" type="line"/>
      <point x="1226" y="262" type="line"/>
      <point x="1204" y="406" type="line"/>
      <point x="1170" y="646" type="line"/>
      <point x="932" y="646" type="line"/>
    </contour>
    <contour>
      <point x="11" y="554" type="line"/>
      <point x="1731" y="554" type="line"/>
      <point x="1746" y="775" type="line"/>
      <point x="27" y="775" type="line"/>
    </contour>
    <contour>
      <point x="678" y="1251" type="line"/>
      <point x="589" y="655" type="line"/>
      <point x="823" y="655" type="line"/>
      <point x="844" y="797" type="line"/>
      <point x="876" y="1029" type="line"/>
      <point x="892" y="1029" type="line"/>
      <point x="924" y="797" type="line"/>
      <point x="945" y="652" type="line"/>
      <point x="1179" y="652" type="line"/>
      <point x="1090" y="1251" type="line"/>
    </contour>
  </outline>
</glyph>
<glyph name="uni20AA" format="2">
  <advance width="1845"/>
  <unicode hex="20AA"/>
  <outline>
    <contour>
      <point x="547" y="-1" type="line"/>
      <point x="1296" y="-1" type="line" smooth="yes"/>
      <point x="1610" y="-1"/>
      <point x="1741" y="153"/>
      <point x="1741" y="418" type="curve" smooth="yes"/>
      <point x="1741" y="1107" type="line"/>
      <point x="1413" y="1107" type="line"/>
      <point x="1413" y="418" type="line" smooth="yes"/>
      <point x="1413" y="332"/>
      <point x="1387" y="279"/>
      <point x="1280" y="279" type="curve" smooth="yes"/>
      <point x="875" y="279" type="line"/>
      <point x="875" y="736" type="line"/>
      <point x="547" y="736" type="line"/>
    </contour>
    <contour>
      <point x="104" y="1106" type="line"/>
      <point x="104" y="-1" type="line"/>
      <point x="442" y="-1" type="line"/>
      <point x="442" y="826" type="line"/>
      <point x="847" y="826" type="line" smooth="yes"/>
      <point x="953" y="826"/>
      <point x="980" y="773"/>
      <point x="980" y="687" type="curve" smooth="yes"/>
      <point x="980" y="369" type="line"/>
      <point x="1308" y="369" type="line"/>
      <point x="1308" y="687" type="line" smooth="yes"/>
      <point x="1308" y="952"/>
      <point x="1184" y="1106"/>
      <point x="853" y="1106" type="curve" smooth="yes"/>
    </contour>
  </outline>
</glyph>
<glyph name="dong" format="2">
  <advance width="1164"/>
  <unicode hex="20AB"/>
  <anchor x="565.926" y="-312" name="bottom"/>
  <anchor x="564" y="493" name="center"/>
  <anchor x="564" y="1319" name="top"/>
  <anchor x="1145" y="1319" name="topright"/>
  <outline>
    <contour>
      <point x="54" y="-318" type="line"/>
      <point x="1076" y="-318" type="line"/>
      <point x="1076" y="-109" type="line"/>
      <point x="54" y="-109" type="line"/>
    </contour>
    <component base="dcroat"/>
  </outline>
</glyph>
<glyph name="kip" format="2">
  <advance width="1270"/>
  <unicode hex="20AD"/>
  <anchor x="665" y="0" name="bottom"/>
  <anchor x="665" y="1278" name="top"/>
  <outline>
    <contour>
      <point x="649" y="789" type="line"/>
      <point x="633" y="560" type="line"/>
      <point x="1189" y="560" type="line"/>
      <point x="1204" y="788" type="line"/>
    </contour>
    <contour>
      <point x="380" y="560" type="line"/>
      <point x="396" y="789" type="line"/>
      <point x="21" y="789" type="line"/>
      <point x="5" y="560" type="line"/>
    </contour>
    <component base="K" xOffset="36"/>
  </outline>
</glyph>
<glyph name="uni20AE" format="2">
  <advance width="1142"/>
  <unicode hex="20AE"/>
  <anchor x="571" y="0" name="bottom"/>
  <anchor x="571" y="639" name="center"/>
  <anchor x="571" y="1278" name="top"/>
  <outline>
    <contour>
      <point x="936" y="880" type="line"/>
      <point x="207" y="587" type="line"/>
      <point x="207" y="384" type="line"/>
      <point x="936" y="677" type="line"/>
    </contour>
    <contour>
      <point x="936" y="587" type="line"/>
      <point x="207" y="294" type="line"/>
      <point x="207" y="95" type="line"/>
      <point x="936" y="388" type="line"/>
    </contour>
    <component base="T"/>
  </outline>
</glyph>
<glyph name="peso" format="2">
  <advance width="1314"/>
  <unicode hex="20B1"/>
  <outline>
    <contour>
      <point x="394" y="343" type="line"/>
      <point x="710" y="343" type="line" smooth="yes"/>
      <point x="1046" y="343"/>
      <point x="1200" y="491"/>
      <point x="1200" y="773" type="curve" smooth="yes"/>
      <point x="1200" y="847" type="line" smooth="yes"/>
      <point x="1200" y="1127"/>
      <point x="1046" y="1278"/>
      <point x="708" y="1278" type="curve" smooth="yes"/>
      <point x="394" y="1278" type="line"/>
      <point x="394" y="988" type="line"/>
      <point x="676" y="988" type="line" smooth="yes"/>
      <point x="794" y="988"/>
      <point x="842" y="941"/>
      <point x="842" y="836" type="curve" smooth="yes"/>
      <point x="842" y="785" type="line" smooth="yes"/>
      <point x="842" y="680"/>
      <point x="794" y="634"/>
      <point x="676" y="634" type="curve" smooth="yes"/>
      <point x="394" y="634" type="line"/>
    </contour>
    <contour>
      <point x="15" y="533" type="line"/>
      <point x="367" y="533" type="line"/>
      <point x="371" y="723" type="line"/>
      <point x="30" y="723" type="line"/>
    </contour>
    <contour>
      <point x="150" y="0" type="line"/>
      <point x="506" y="0" type="line"/>
      <point x="506" y="388" type="line"/>
      <point x="504" y="553" type="line"/>
      <point x="504" y="1278" type="line"/>
      <point x="150" y="1278" type="line"/>
    </contour>
    <contour>
      <point x="15" y="813" type="line"/>
      <point x="367" y="813" type="line"/>
      <point x="371" y="1003" type="line"/>
      <point x="30" y="1003" type="line"/>
    </contour>
    <contour>
      <point x="993" y="533" type="line"/>
      <point x="1299" y="533" type="line"/>
      <point x="1314" y="723" type="line"/>
      <point x="997" y="723" type="line"/>
    </contour>
    <contour>
      <point x="993" y="813" type="line"/>
      <point x="1299" y="813" type="line"/>
      <point x="1314" y="1003" type="line"/>
      <point x="997" y="1003" type="line"/>
    </contour>
  </outline>
</glyph>
<glyph name="guarani" format="2">
  <advance width="1282"/>
  <unicode hex="20B2"/>
  <outline>
    <contour>
      <point x="829" y="1123" type="line"/>
      <point x="829" y="1474" type="line"/>
      <point x="532" y="1474" type="line"/>
      <point x="532" y="1123" type="line"/>
    </contour>
    <contour>
      <point x="829" y="-200" type="line"/>
      <point x="829" y="162" type="line"/>
      <point x="532" y="162" type="line"/>
      <point x="532" y="-200" type="line"/>
    </contour>
    <contour>
      <point x="648" y="-34" type="curve" smooth="yes"/>
      <point x="918" y="-34"/>
      <point x="1082" y="48"/>
      <point x="1186" y="140" type="curve"/>
      <point x="1186" y="762" type="line"/>
      <point x="657" y="762" type="line"/>
      <point x="657" y="487" type="line"/>
      <point x="915" y="489" type="line"/>
      <point x="841" y="600" type="line"/>
      <point x="841" y="318" type="line"/>
      <point x="811" y="297"/>
      <point x="760" y="273"/>
      <point x="675" y="273" type="curve" smooth="yes"/>
      <point x="511" y="273"/>
      <point x="437" y="361"/>
      <point x="437" y="512" type="curve" smooth="yes"/>
      <point x="437" y="710" type="line" smooth="yes"/>
      <point x="437" y="907"/>
      <point x="534" y="1004"/>
      <point x="769" y="1004" type="curve" smooth="yes"/>
      <point x="928" y="1004"/>
      <point x="1049" y="966"/>
      <point x="1153" y="925" type="curve"/>
      <point x="1123" y="1226" type="line"/>
      <point x="1022" y="1274"/>
      <point x="875" y="1311"/>
      <point x="698" y="1311" type="curve" smooth="yes"/>
      <point x="283" y="1311"/>
      <point x="68" y="1103"/>
      <point x="68" y="717" type="curve" smooth="yes"/>
      <point x="68" y="513" type="line" smooth="yes"/>
      <point x="68" y="168"/>
      <point x="233" y="-34"/>
    </contour>
  </outline>
</glyph>
<glyph name="cedi" format="2">
  <advance width="1052"/>
  <unicode hex="20B5"/>
  <anchor x="566" y="0" name="bottom"/>
  <anchor x="566" y="1278" name="top"/>
  <outline>
    <contour>
      <point x="474" y="-200" type="line"/>
      <point x="771" y="-200" type="line"/>
      <point x="771" y="162" type="line"/>
      <point x="474" y="162" type="line"/>
    </contour>
    <contour>
      <point x="474" y="1123" type="line"/>
      <point x="771" y="1123" type="line"/>
      <point x="771" y="1474" type="line"/>
      <point x="474" y="1474" type="line"/>
    </contour>
    <component base="C"/>
  </outline>
</glyph>
<glyph name="rupeeIndian" format="2">
  <advance width="1051"/>
  <unicode hex="20B9"/>
  <outline>
    <contour>
      <point x="994" y="1278" type="line"/>
      <point x="1011" y="1057" type="line"/>
      <point x="74" y="1057" type="line"/>
      <point x="57" y="1278" type="line"/>
    </contour>
    <contour>
      <point x="880" y="13" type="line"/>
      <point x="880" y="0" type="line"/>
      <point x="459" y="0" type="line"/>
      <point x="197" y="355" type="line"/>
      <point x="69" y="374" type="line"/>
      <point x="69" y="637" type="line"/>
      <point x="458" y="536" type="line"/>
      <point x="460" y="444" type="line"/>
      <point x="581" y="366"/>
      <point x="640" y="291"/>
      <point x="728" y="189" type="curve" smooth="yes"/>
    </contour>
    <contour>
      <point x="420" y="1086" type="curve"/>
      <point x="766" y="1086" type="line"/>
      <point x="833" y="1015"/>
      <point x="860" y="929"/>
      <point x="860" y="821" type="curve" smooth="yes"/>
      <point x="860" y="777" type="line" smooth="yes"/>
      <point x="860" y="536"/>
      <point x="715" y="398"/>
      <point x="391" y="384" type="curve" smooth="yes"/>
      <point x="298" y="380" type="line"/>
      <point x="69" y="637" type="line"/>
      <point x="284" y="637" type="line" smooth="yes"/>
      <point x="459" y="637"/>
      <point x="517" y="696"/>
      <point x="517" y="810" type="curve" smooth="yes"/>
      <point x="517" y="873" type="line" smooth="yes"/>
      <point x="517" y="958"/>
      <point x="492" y="1022"/>
    </contour>
    <contour>
      <point x="994" y="961" type="line"/>
      <point x="1011" y="740" type="line"/>
      <point x="74" y="740" type="line"/>
      <point x="57" y="961" type="line"/>
    </contour>
  </outline>
</glyph>
<glyph name="liraTurkish" format="2">
  <advance width="1182"/>
  <unicode hex="20BA"/>
  <outline>
    <contour>
      <point x="121" y="0" type="line"/>
      <point x="500" y="0" type="line" smooth="yes"/>
      <point x="914" y="0"/>
      <point x="1125" y="205"/>
      <point x="1125" y="559" type="curve" smooth="yes"/>
      <point x="1125" y="635" type="line"/>
      <point x="767" y="635" type="line"/>
      <point x="767" y="589" type="line" smooth="yes"/>
      <point x="767" y="389"/>
      <point x="676" y="319"/>
      <point x="504" y="319" type="curve" smooth="yes"/>
      <point x="484" y="319" type="line"/>
      <point x="484" y="1278" type="line"/>
      <point x="121" y="1278" type="line"/>
    </contour>
    <contour>
      <point x="729" y="1188" type="line"/>
      <point x="0" y="895" type="line"/>
      <point x="0" y="692" type="line"/>
      <point x="729" y="985" type="line"/>
    </contour>
    <contour>
      <point x="729" y="895" type="line"/>
      <point x="0" y="602" type="line"/>
      <point x="0" y="403" type="line"/>
      <point x="729" y="696" type="line"/>
    </contour>
  </outline>
</glyph>
<glyph name="manat" format="2">
  <advance width="1599"/>
  <unicode hex="20BC"/>
  <outline>
    <contour>
      <point x="800" y="1312" type="curve" smooth="yes"/>
      <point x="338" y="1312"/>
      <point x="95" y="1084"/>
      <point x="95" y="643" type="curve" smooth="yes"/>
      <point x="95" y="0" type="line"/>
      <point x="458" y="0" type="line"/>
      <point x="458" y="647" type="line" smooth="yes"/>
      <point x="458" y="890"/>
      <point x="567" y="1010"/>
      <point x="800" y="1010" type="curve" smooth="yes"/>
      <point x="1032" y="1010"/>
      <point x="1141" y="890"/>
      <point x="1141" y="647" type="curve" smooth="yes"/>
      <point x="1141" y="0" type="line"/>
      <point x="1504" y="0" type="line"/>
      <point x="1504" y="643" type="line" smooth="yes"/>
      <point x="1504" y="1084"/>
      <point x="1261" y="1312"/>
    </contour>
    <contour>
      <point x="948" y="0" type="line"/>
      <point x="948" y="1474" type="line"/>
      <point x="651" y="1474" type="line"/>
      <point x="651" y="0" type="line"/>
    </contour>
  </outline>
</glyph>
<glyph name="ruble" format="2">
  <advance width="1249"/>
  <unicode hex="20BD"/>
  <outline>
    <contour>
      <point x="394" y="409" type="line"/>
      <point x="700" y="409" type="line" smooth="yes"/>
      <point x="1043" y="409"/>
      <point x="1200" y="551"/>
      <point x="1200" y="820" type="curve" smooth="yes"/>
      <point x="1200" y="864" type="line" smooth="yes"/>
      <point x="1200" y="1133"/>
      <point x="1043" y="1278"/>
      <point x="698" y="1278" type="curve" smooth="yes"/>
      <point x="394" y="1278" type="line"/>
      <point x="394" y="989" type="line"/>
      <point x="688" y="989" type="line" smooth="yes"/>
      <point x="797" y="989"/>
      <point x="842" y="948"/>
      <point x="842" y="855" type="curve" smooth="yes"/>
      <point x="842" y="832" type="line" smooth="yes"/>
      <point x="842" y="738"/>
      <point x="797" y="697"/>
      <point x="688" y="697" type="curve" smooth="yes"/>
      <point x="394" y="697" type="line"/>
    </contour>
    <contour>
      <point x="15" y="120" type="line"/>
      <point x="882" y="120" type="line"/>
      <point x="897" y="310" type="line"/>
      <point x="31" y="310" type="line"/>
    </contour>
    <contour>
      <point x="15" y="409" type="line"/>
      <point x="450" y="409" type="line"/>
      <point x="396" y="599" type="line"/>
      <point x="31" y="599" type="line"/>
    </contour>
    <contour>
      <point x="150" y="0" type="line"/>
      <point x="506" y="0" type="line"/>
      <point x="506" y="388" type="line"/>
      <point x="504" y="553" type="line"/>
      <point x="504" y="1278" type="line"/>
      <point x="150" y="1278" type="line"/>
    </contour>
  </outline>
</glyph>
<glyph name="literSign" format="2">
  <advance width="974"/>
  <unicode hex="2113"/>
  <outline>
    <contour>
      <point x="328" y="591" type="curve"/>
      <point x="355" y="305" type="line"/>
      <point x="731" y="434"/>
      <point x="921" y="558"/>
      <point x="921" y="889" type="curve" smooth="yes"/>
      <point x="921" y="940" type="line" smooth="yes"/>
      <point x="921" y="1206"/>
      <point x="770" y="1339"/>
      <point x="524" y="1339" type="curve" smooth="yes"/>
      <point x="264" y="1339"/>
      <point x="119" y="1203"/>
      <point x="119" y="940" type="curve" smooth="yes"/>
      <point x="119" y="469" type="line"/>
      <point x="451" y="459" type="line"/>
      <point x="451" y="966" type="line" smooth="yes"/>
      <point x="451" y="1032"/>
      <point x="476" y="1065"/>
      <point x="525" y="1065" type="curve" smooth="yes"/>
      <point x="574" y="1065"/>
      <point x="596" y="1032"/>
      <point x="596" y="966" type="curve" smooth="yes"/>
      <point x="596" y="884" type="line" smooth="yes"/>
      <point x="596" y="736"/>
      <point x="538" y="666"/>
    </contour>
    <contour>
      <point x="308" y="297" type="curve"/>
      <point x="308" y="591" type="line"/>
      <point x="222" y="560"/>
      <point x="120" y="523"/>
      <point x="15" y="486" type="curve"/>
      <point x="15" y="180" type="line"/>
      <point x="115" y="218"/>
      <point x="214" y="258"/>
    </contour>
    <contour>
      <point x="580" y="-22" type="curve" smooth="yes"/>
      <point x="692" y="-22"/>
      <point x="795" y="3"/>
      <point x="868" y="36" type="curve"/>
      <point x="895" y="322" type="line"/>
      <point x="826" y="295"/>
      <point x="736" y="270"/>
      <point x="650" y="270" type="curve" smooth="yes"/>
      <point x="501" y="270"/>
      <point x="453" y="314"/>
      <point x="453" y="416" type="curve" smooth="yes"/>
      <point x="453" y="528" type="line"/>
      <point x="123" y="523" type="line"/>
      <point x="123" y="412" type="line" smooth="yes"/>
      <point x="123" y="129"/>
      <point x="257" y="-22"/>
    </contour>
  </outline>
</glyph>
<glyph name="numero" format="2">
  <advance width="2015"/>
  <unicode hex="2116"/>
  <anchor x="670" y="0" name="bottom"/>
  <anchor x="670" y="1278" name="top"/>
  <outline>
    <contour>
      <point x="1345" y="333" type="line"/>
      <point x="1973" y="333" type="line"/>
      <point x="1973" y="532" type="line"/>
      <point x="1345" y="532" type="line"/>
    </contour>
    <contour>
      <point x="1658" y="621" type="curve" smooth="yes"/>
      <point x="1868" y="621"/>
      <point x="1979" y="730"/>
      <point x="1979" y="929" type="curve" smooth="yes"/>
      <point x="1979" y="985" type="line" smooth="yes"/>
      <point x="1979" y="1182"/>
      <point x="1869" y="1293"/>
      <point x="1658" y="1293" type="curve" smooth="yes"/>
      <point x="1450" y="1293"/>
      <point x="1339" y="1183"/>
      <point x="1339" y="985" type="curve" smooth="yes"/>
      <point x="1339" y="929" type="line" smooth="yes"/>
      <point x="1339" y="730"/>
      <point x="1450" y="621"/>
    </contour>
    <contour>
      <point x="1659" y="813" type="curve" smooth="yes"/>
      <point x="1606" y="813"/>
      <point x="1581" y="849"/>
      <point x="1581" y="913" type="curve" smooth="yes"/>
      <point x="1581" y="1002" type="line" smooth="yes"/>
      <point x="1581" y="1065"/>
      <point x="1606" y="1101"/>
      <point x="1659" y="1101" type="curve" smooth="yes"/>
      <point x="1712" y="1101"/>
      <point x="1737" y="1065"/>
      <point x="1737" y="1002" type="curve" smooth="yes"/>
      <point x="1737" y="913" type="line" smooth="yes"/>
      <point x="1737" y="849"/>
      <point x="1712" y="813"/>
    </contour>
    <component base="N"/>
  </outline>
</glyph>
<glyph name="trademark" format="2">
  <advance width="1382"/>
  <unicode hex="2122"/>
  <outline>
    <contour>
      <point x="170" y="639" type="line"/>
      <point x="391" y="639" type="line"/>
      <point x="391" y="1223" type="line"/>
      <point x="170" y="1223" type="line"/>
    </contour>
    <contour>
      <point x="18" y="1097" type="line"/>
      <point x="541" y="1097" type="line"/>
      <point x="541" y="1278" type="line"/>
      <point x="18" y="1278" type="line"/>
    </contour>
    <contour>
      <point x="600" y="639" type="line"/>
      <point x="809" y="639" type="line"/>
      <point x="810" y="824" type="line"/>
      <point x="806" y="1041" type="line"/>
      <point x="816" y="1041" type="line"/>
      <point x="869" y="713" type="line"/>
      <point x="1060" y="713" type="line"/>
      <point x="1112" y="1041" type="line"/>
      <point x="1121" y="1041" type="line"/>
      <point x="1118" y="824" type="line"/>
      <point x="1119" y="639" type="line"/>
      <point x="1328" y="639" type="line"/>
      <point x="1318" y="1278" type="line"/>
      <point x="1019" y="1278" type="line"/>
      <point x="968" y="943" type="line"/>
      <point x="960" y="943" type="line"/>
      <point x="910" y="1278" type="line"/>
      <point x="610" y="1278" type="line"/>
    </contour>
  </outline>
</glyph>
<glyph name="Ohm" format="2">
  <advance width="1293"/>
  <unicode hex="2126"/>
  <outline>
    <contour>
      <point x="646" y="1312" type="curve" smooth="yes"/>
      <point x="262" y="1312"/>
      <point x="64" y="1108"/>
      <point x="64" y="778" type="curve" smooth="yes"/>
      <point x="64" y="673" type="line" smooth="yes"/>
      <point x="64" y="460"/>
      <point x="159" y="345"/>
      <point x="357" y="300" type="curve"/>
      <point x="357" y="289" type="line"/>
      <point x="47" y="289" type="line"/>
      <point x="47" y="1" type="line"/>
      <point x="592" y="1" type="line"/>
      <point x="592" y="296" type="line"/>
      <point x="492" y="332"/>
      <point x="436" y="420"/>
      <point x="436" y="560" type="curve" smooth="yes"/>
      <point x="436" y="753" type="line" smooth="yes"/>
      <point x="436" y="915"/>
      <point x="510" y="1004"/>
      <point x="647" y="1004" type="curve" smooth="yes"/>
      <point x="784" y="1004"/>
      <point x="857" y="915"/>
      <point x="857" y="753" type="curve" smooth="yes"/>
      <point x="857" y="560" type="line" smooth="yes"/>
      <point x="857" y="420"/>
      <point x="801" y="332"/>
      <point x="702" y="296" type="curve"/>
      <point x="702" y="1" type="line"/>
      <point x="1246" y="1" type="line"/>
      <point x="1246" y="289" type="line"/>
      <point x="936" y="289" type="line"/>
      <point x="936" y="300" type="line"/>
      <point x="1134" y="345"/>
      <point x="1229" y="460"/>
      <point x="1229" y="673" type="curve" smooth="yes"/>
      <point x="1229" y="778" type="line" smooth="yes"/>
      <point x="1229" y="1108"/>
      <point x="1030" y="1312"/>
    </contour>
  </outline>
</glyph>
<glyph name="estimated" format="2">
  <advance width="1511"/>
  <unicode hex="212E"/>
  <outline>
    <contour>
      <point x="330" y="581" type="curve"/>
      <point x="1443" y="581" type="line"/>
      <point x="1443" y="606" type="line" smooth="yes"/>
      <point x="1443" y="979"/>
      <point x="1167" y="1227"/>
      <point x="754" y="1227" type="curve" smooth="yes"/>
      <point x="342" y="1227"/>
      <point x="68" y="979"/>
      <point x="68" y="606" type="curve" smooth="yes"/>
      <point x="68" y="226"/>
      <point x="342" y="-10"/>
      <point x="754" y="-10" type="curve" smooth="yes"/>
      <point x="968" y="-10"/>
      <point x="1177" y="86"/>
      <point x="1301" y="230" type="curve"/>
      <point x="1200" y="230" type="line"/>
      <point x="1091" y="116"/>
      <point x="937" y="46"/>
      <point x="757" y="46" type="curve" smooth="yes"/>
      <point x="579" y="46"/>
      <point x="441" y="97"/>
      <point x="338" y="204" type="curve" smooth="yes"/>
      <point x="325" y="218"/>
      <point x="319" y="231"/>
      <point x="319" y="244" type="curve" smooth="yes"/>
      <point x="319" y="574" type="line" smooth="yes"/>
      <point x="319" y="579"/>
      <point x="323" y="581"/>
    </contour>
    <contour>
      <point x="1193" y="983" type="curve"/>
      <point x="1193" y="647" type="line" smooth="yes"/>
      <point x="1193" y="640"/>
      <point x="1190" y="637"/>
      <point x="1183" y="637" type="curve" smooth="yes"/>
      <point x="330" y="637" type="line" smooth="yes"/>
      <point x="323" y="637"/>
      <point x="319" y="640"/>
      <point x="319" y="647" type="curve" smooth="yes"/>
      <point x="319" y="976" type="line" smooth="yes"/>
      <point x="319" y="990"/>
      <point x="326" y="1007"/>
      <point x="338" y="1020" type="curve" smooth="yes"/>
      <point x="420" y="1104"/>
      <point x="589" y="1178"/>
      <point x="757" y="1178" type="curve" smooth="yes"/>
      <point x="922" y="1178"/>
      <point x="1077" y="1129"/>
      <point x="1173" y="1025" type="curve" smooth="yes"/>
      <point x="1186" y="1011"/>
      <point x="1193" y="998"/>
    </contour>
  </outline>
</glyph>
<glyph name="partialdiff" format="2">
  <advance width="1136"/>
  <unicode hex="2202"/>
  <outline>
    <contour>
      <point x="309" y="1279" type="curve"/>
      <point x="251" y="978" type="line"/>
      <point x="311" y="994"/>
      <point x="373" y="1005"/>
      <point x="438" y="1005" type="curve" smooth="yes"/>
      <point x="631" y="1005"/>
      <point x="728" y="933"/>
      <point x="728" y="759" type="curve" smooth="yes"/>
      <point x="728" y="723"/>
      <point x="725" y="687"/>
      <point x="712" y="519" type="curve"/>
      <point x="707" y="369"/>
      <point x="664" y="263"/>
      <point x="534" y="263" type="curve" smooth="yes"/>
      <point x="444" y="263"/>
      <point x="395" y="309"/>
      <point x="395" y="388" type="curve" smooth="yes"/>
      <point x="395" y="409"/>
      <point x="397" y="428"/>
      <point x="400" y="447" type="curve" smooth="yes"/>
      <point x="411" y="517"/>
      <point x="448" y="569"/>
      <point x="540" y="569" type="curve" smooth="yes"/>
      <point x="624" y="569"/>
      <point x="686" y="532"/>
      <point x="715" y="452" type="curve"/>
      <point x="765" y="618" type="line"/>
      <point x="709" y="618" type="line"/>
      <point x="686" y="740"/>
      <point x="610" y="835"/>
      <point x="419" y="835" type="curve" smooth="yes"/>
      <point x="179" y="835"/>
      <point x="65" y="679"/>
      <point x="45" y="437" type="curve" smooth="yes"/>
      <point x="43" y="411"/>
      <point x="42" y="383"/>
      <point x="42" y="371" type="curve" smooth="yes"/>
      <point x="42" y="109"/>
      <point x="208" y="-33"/>
      <point x="522" y="-33" type="curve" smooth="yes"/>
      <point x="877" y="-33"/>
      <point x="1043" y="176"/>
      <point x="1070" y="533" type="curve" smooth="yes"/>
      <point x="1085" y="727"/>
      <point x="1086" y="757"/>
      <point x="1086" y="774" type="curve" smooth="yes"/>
      <point x="1086" y="1129"/>
      <point x="901" y="1304"/>
      <point x="555" y="1304" type="curve" smooth="yes"/>
      <point x="471" y="1304"/>
      <point x="378" y="1296"/>
    </contour>
  </outline>
</glyph>
<glyph name="emptyset" format="2">
  <advance width="1465"/>
  <unicode hex="2205"/>
  <outline>
    <contour>
      <point x="128" y="-100" type="line"/>
      <point x="456" y="-100" type="line"/>
      <point x="1324" y="1229" type="line"/>
      <point x="996" y="1229" type="line"/>
    </contour>
    <contour>
      <point x="731" y="-29" type="curve"/>
      <point x="1131" y="-29"/>
      <point x="1397" y="204"/>
      <point x="1397" y="553" type="curve" smooth="yes"/>
      <point x="1397" y="576" type="line" smooth="yes"/>
      <point x="1397" y="925"/>
      <point x="1131" y="1158"/>
      <point x="731" y="1158" type="curve"/>
      <point x="333" y="1158"/>
      <point x="68" y="925"/>
      <point x="68" y="576" type="curve" smooth="yes"/>
      <point x="68" y="553" type="line" smooth="yes"/>
      <point x="68" y="204"/>
      <point x="333" y="-29"/>
    </contour>
    <contour>
      <point x="731" y="271" type="curve"/>
      <point x="552" y="271"/>
      <point x="432" y="384"/>
      <point x="432" y="553" type="curve"/>
      <point x="432" y="576" type="line"/>
      <point x="432" y="746"/>
      <point x="552" y="859"/>
      <point x="731" y="859" type="curve"/>
      <point x="912" y="859"/>
      <point x="1033" y="746"/>
      <point x="1033" y="576" type="curve"/>
      <point x="1033" y="553" type="line"/>
      <point x="1033" y="384"/>
      <point x="912" y="271"/>
    </contour>
  </outline>
</glyph>
<glyph name="increment" format="2">
  <advance width="1228"/>
  <unicode hex="2206"/>
  <outline>
    <contour>
      <point x="890" y="132" type="line"/>
      <point x="1181" y="299" type="line"/>
      <point x="816" y="1278" type="line"/>
      <point x="503" y="1278" type="line"/>
    </contour>
    <contour>
      <point x="47" y="299" type="line"/>
      <point x="47" y="0" type="line"/>
      <point x="723" y="0" type="line"/>
      <point x="723" y="304" type="line"/>
      <point x="302" y="304" type="line"/>
    </contour>
    <contour>
      <point x="338" y="132" type="line"/>
      <point x="725" y="1278" type="line"/>
      <point x="412" y="1278" type="line"/>
      <point x="47" y="299" type="line"/>
    </contour>
    <contour>
      <point x="1181" y="299" type="line"/>
      <point x="926" y="304" type="line"/>
      <point x="496" y="304" type="line"/>
      <point x="496" y="0" type="line"/>
      <point x="1181" y="0" type="line"/>
    </contour>
  </outline>
</glyph>
<glyph name="product" format="2">
  <advance width="1174"/>
  <unicode hex="220F"/>
  <outline>
    <contour>
      <point x="1070" y="-185" type="line"/>
      <point x="1070" y="1278" type="line"/>
      <point x="104" y="1278" type="line"/>
      <point x="104" y="-185" type="line"/>
      <point x="467" y="-185" type="line"/>
      <point x="467" y="1110" type="line"/>
      <point x="327" y="977" type="line"/>
      <point x="844" y="977" type="line"/>
      <point x="707" y="1109" type="line"/>
      <point x="707" y="-185" type="line"/>
    </contour>
  </outline>
</glyph>
<glyph name="summation" format="2">
  <advance width="1017"/>
  <unicode hex="2211"/>
  <outline>
    <contour>
      <point x="47" y="996" type="line"/>
      <point x="269" y="977" type="line"/>
      <point x="953" y="977" type="line"/>
      <point x="953" y="1278" type="line"/>
      <point x="47" y="1278" type="line"/>
    </contour>
    <contour>
      <point x="47" y="-185" type="line"/>
      <point x="953" y="-185" type="line"/>
      <point x="953" y="116" type="line"/>
      <point x="254" y="116" type="line"/>
      <point x="47" y="100" type="line"/>
    </contour>
    <contour>
      <point x="444" y="566" type="line"/>
      <point x="444" y="543" type="line"/>
      <point x="47" y="100" type="line"/>
      <point x="312" y="-79" type="line"/>
      <point x="811" y="447" type="line"/>
      <point x="811" y="659" type="line"/>
      <point x="312" y="1173" type="line"/>
      <point x="47" y="996" type="line"/>
    </contour>
  </outline>
</glyph>
<glyph name="minus" format="2">
  <advance width="998"/>
  <unicode hex="2212"/>
  <outline>
    <contour>
      <point x="84" y="478" type="line"/>
      <point x="914" y="478" type="line"/>
      <point x="914" y="758" type="line"/>
      <point x="84" y="758" type="line"/>
    </contour>
  </outline>
</glyph>
<glyph name="radical" format="2">
  <advance width="1235"/>
  <unicode hex="221A"/>
  <outline>
    <contour>
      <point x="376" y="-252" type="line"/>
      <point x="701" y="-252" type="line"/>
      <point x="1310" y="1351" type="line"/>
      <point x="988" y="1351" type="line"/>
    </contour>
    <contour>
      <point x="213" y="-252" type="line"/>
      <point x="684" y="-252" type="line"/>
      <point x="461" y="-41" type="line"/>
      <point x="440" y="-41" type="line"/>
      <point x="339" y="335" type="line"/>
      <point x="44" y="335" type="line"/>
    </contour>
  </outline>
</glyph>
<glyph name="infinity" format="2">
  <advance width="1621"/>
  <unicode hex="221E"/>
  <outline>
    <contour>
      <point x="58" y="475" type="line" smooth="yes"/>
      <point x="58" y="192"/>
      <point x="219" y="54"/>
      <point x="449" y="54" type="curve" smooth="yes"/>
      <point x="628" y="54"/>
      <point x="779" y="139"/>
      <point x="839" y="329" type="curve"/>
      <point x="851" y="329" type="line"/>
      <point x="851" y="662" type="line"/>
      <point x="839" y="662" type="line"/>
      <point x="767" y="857"/>
      <point x="628" y="937"/>
      <point x="449" y="937" type="curve" smooth="yes"/>
      <point x="221" y="937"/>
      <point x="58" y="801"/>
      <point x="58" y="520" type="curve" smooth="yes"/>
    </contour>
    <contour>
      <point x="392" y="487" type="curve" smooth="yes"/>
      <point x="392" y="507" type="line" smooth="yes"/>
      <point x="392" y="618"/>
      <point x="432" y="660"/>
      <point x="510" y="660" type="curve" smooth="yes"/>
      <point x="578" y="660"/>
      <point x="642" y="607"/>
      <point x="679" y="496" type="curve"/>
      <point x="641" y="392"/>
      <point x="584" y="331"/>
      <point x="515" y="331" type="curve" smooth="yes"/>
      <point x="433" y="331"/>
      <point x="392" y="375"/>
    </contour>
    <contour>
      <point x="1563" y="475" type="curve" smooth="yes"/>
      <point x="1563" y="520" type="line" smooth="yes"/>
      <point x="1563" y="801"/>
      <point x="1400" y="937"/>
      <point x="1172" y="937" type="curve" smooth="yes"/>
      <point x="994" y="937"/>
      <point x="854" y="857"/>
      <point x="782" y="662" type="curve"/>
      <point x="770" y="662" type="line"/>
      <point x="770" y="329" type="line"/>
      <point x="782" y="329" type="line"/>
      <point x="843" y="139"/>
      <point x="994" y="54"/>
      <point x="1172" y="54" type="curve" smooth="yes"/>
      <point x="1402" y="54"/>
      <point x="1563" y="192"/>
    </contour>
    <contour>
      <point x="1230" y="487" type="line" smooth="yes"/>
      <point x="1230" y="375"/>
      <point x="1188" y="331"/>
      <point x="1106" y="331" type="curve" smooth="yes"/>
      <point x="1038" y="331"/>
      <point x="980" y="392"/>
      <point x="943" y="496" type="curve"/>
      <point x="980" y="607"/>
      <point x="1044" y="660"/>
      <point x="1111" y="660" type="curve" smooth="yes"/>
      <point x="1189" y="660"/>
      <point x="1230" y="618"/>
      <point x="1230" y="507" type="curve" smooth="yes"/>
    </contour>
  </outline>
</glyph>
<glyph name="integral" format="2">
  <advance width="666"/>
  <unicode hex="222B"/>
  <outline>
    <contour>
      <point x="-122" y="-80" type="curve"/>
      <point x="-107" y="-333" type="line"/>
      <point x="-60" y="-346"/>
      <point x="-8" y="-354"/>
      <point x="47" y="-354" type="curve" smooth="yes"/>
      <point x="341" y="-354"/>
      <point x="447" y="-229"/>
      <point x="466" y="34" type="curve"/>
      <point x="532" y="943" type="line"/>
      <point x="539" y="1043"/>
      <point x="577" y="1079"/>
      <point x="700" y="1079" type="curve" smooth="yes"/>
      <point x="729" y="1079"/>
      <point x="757" y="1077"/>
      <point x="785" y="1073" type="curve"/>
      <point x="769" y="1327" type="line"/>
      <point x="723" y="1339"/>
      <point x="670" y="1348"/>
      <point x="616" y="1348" type="curve" smooth="yes"/>
      <point x="322" y="1348"/>
      <point x="216" y="1222"/>
      <point x="197" y="960" type="curve"/>
      <point x="131" y="51" type="line"/>
      <point x="124" y="-50"/>
      <point x="86" y="-85"/>
      <point x="-38" y="-85" type="curve" smooth="yes"/>
      <point x="-67" y="-85"/>
      <point x="-95" y="-83"/>
    </contour>
  </outline>
</glyph>
<glyph name="notequal" format="2">
  <advance width="1039"/>
  <unicode hex="2260"/>
  <outline>
    <contour>
      <point x="179" y="60" type="line"/>
      <point x="462" y="60" type="line"/>
      <point x="840" y="1177" type="line"/>
      <point x="560" y="1177" type="line"/>
    </contour>
    <component base="equal" yOffset="1"/>
  </outline>
</glyph>
<glyph name="lessequal" format="2">
  <advance width="1039"/>
  <unicode hex="2264"/>
  <outline>
    <contour>
      <point x="949" y="391" type="line"/>
      <point x="949" y="676" type="line"/>
      <point x="324" y="746" type="line"/>
      <point x="324" y="766" type="line"/>
      <point x="949" y="836" type="line"/>
      <point x="949" y="1120" type="line"/>
      <point x="90" y="981" type="line"/>
      <point x="90" y="530" type="line"/>
    </contour>
    <contour>
      <point x="90" y="57" type="line"/>
      <point x="949" y="57" type="line"/>
      <point x="949" y="331" type="line"/>
      <point x="90" y="331" type="line"/>
    </contour>
  </outline>
</glyph>
<glyph name="greaterequal" format="2">
  <advance width="1039"/>
  <unicode hex="2265"/>
  <outline>
    <contour>
      <point x="90" y="391" type="line"/>
      <point x="949" y="530" type="line"/>
      <point x="949" y="981" type="line"/>
      <point x="90" y="1120" type="line"/>
      <point x="90" y="836" type="line"/>
      <point x="715" y="766" type="line"/>
      <point x="715" y="746" type="line"/>
      <point x="90" y="676" type="line"/>
    </contour>
    <contour>
      <point x="949" y="57" type="line"/>
      <point x="949" y="331" type="line"/>
      <point x="90" y="331" type="line"/>
      <point x="90" y="57" type="line"/>
    </contour>
  </outline>
</glyph>
<glyph name="lozenge" format="2">
  <advance width="1139"/>
  <unicode hex="25CA"/>
  <outline>
    <contour>
      <point x="304" y="516" type="line"/>
      <point x="728" y="1278" type="line"/>
      <point x="371" y="1278" type="line"/>
      <point x="60" y="781" type="line"/>
      <point x="60" y="496" type="line"/>
    </contour>
    <contour>
      <point x="282" y="814" type="line"/>
      <point x="60" y="496" type="line"/>
      <point x="371" y="0" type="line"/>
      <point x="728" y="0" type="line"/>
    </contour>
    <contour>
      <point x="835" y="516" type="line"/>
      <point x="1079" y="496" type="line"/>
      <point x="1079" y="781" type="line"/>
      <point x="768" y="1278" type="line"/>
      <point x="411" y="1278" type="line"/>
    </contour>
    <contour>
      <point x="857" y="814" type="line"/>
      <point x="411" y="0" type="line"/>
      <point x="768" y="0" type="line"/>
      <point x="1079" y="496" type="line"/>
    </contour>
  </outline>
</glyph>
<glyph name="leftanglebracketmath" format="2">
  <advance width="691"/>
  <unicode hex="27E8"/>
  <outline>
    <contour>
      <point x="420" y="549" type="line"/>
      <point x="687" y="1350" type="line"/>
      <point x="355" y="1350" type="line"/>
      <point x="91" y="575" type="line"/>
      <point x="91" y="524" type="line"/>
      <point x="355" y="-251" type="line"/>
      <point x="687" y="-251" type="line"/>
    </contour>
  </outline>
</glyph>
<glyph name="rightanglebracketmath" format="2">
  <advance width="691"/>
  <unicode hex="27E9"/>
  <outline>
    <contour>
      <point x="271" y="549" type="line"/>
      <point x="4" y="-251" type="line"/>
      <point x="336" y="-251" type="line"/>
      <point x="600" y="524" type="line"/>
      <point x="600" y="575" type="line"/>
      <point x="336" y="1350" type="line"/>
      <point x="4" y="1350" type="line"/>
    </contour>
  </outline>
</glyph>
<glyph name="__hookabovecombsmall.case" format="2">
  <advance width="567"/>
  <anchor x="201" y="985" name="_top"/>
  <outline>
    <contour>
      <point x="174" y="1023" type="curve"/>
      <point x="148" y="1160" type="line"/>
      <point x="213" y="1171"/>
      <point x="246" y="1184"/>
      <point x="246" y="1215" type="curve" smooth="yes"/>
      <point x="246" y="1236"/>
      <point x="230" y="1246"/>
      <point x="195" y="1246" type="curve" smooth="yes"/>
      <point x="166" y="1246"/>
      <point x="139" y="1240"/>
      <point x="113" y="1232" type="curve"/>
      <point x="124" y="1371" type="line"/>
      <point x="159" y="1384"/>
      <point x="207" y="1393"/>
      <point x="264" y="1393" type="curve" smooth="yes"/>
      <point x="386" y="1393"/>
      <point x="458" y="1339"/>
      <point x="458" y="1230" type="curve" smooth="yes"/>
      <point x="458" y="1106"/>
      <point x="353" y="1043"/>
    </contour>
  </outline>
</glyph>
<glyph name="__hookabovecombsmall" format="2">
  <advance width="567"/>
  <anchor x="201" y="985" name="_top"/>
  <outline>
    <contour>
      <point x="175" y="1017" type="curve"/>
      <point x="149" y="1160" type="line"/>
      <point x="215" y="1171"/>
      <point x="248" y="1186"/>
      <point x="248" y="1218" type="curve" smooth="yes"/>
      <point x="248" y="1240"/>
      <point x="232" y="1251"/>
      <point x="197" y="1251" type="curve" smooth="yes"/>
      <point x="167" y="1251"/>
      <point x="140" y="1245"/>
      <point x="113" y="1237" type="curve"/>
      <point x="124" y="1383" type="line"/>
      <point x="160" y="1396"/>
      <point x="208" y="1405"/>
      <point x="266" y="1405" type="curve" smooth="yes"/>
      <point x="390" y="1405"/>
      <point x="463" y="1348"/>
      <point x="463" y="1234" type="curve" smooth="yes"/>
      <point x="463" y="1103"/>
      <point x="356" y="1036"/>
    </contour>
  </outline>
</glyph>
<glyph name="_acutecombsmall.case" format="2">
  <advance width="729"/>
  <anchor x="250" y="985" name="_top"/>
  <outline>
    <contour>
      <point x="263" y="1305" type="line"/>
      <point x="129" y="1058" type="line"/>
      <point x="129" y="1055" type="line"/>
      <point x="374" y="1055" type="line"/>
      <point x="565" y="1301" type="line"/>
      <point x="565" y="1305" type="line"/>
    </contour>
  </outline>
</glyph>
<glyph name="_acutecombsmall" format="2">
  <advance width="729"/>
  <anchor x="248" y="985" name="_top"/>
  <outline>
    <contour>
      <point x="268" y="1317" type="line"/>
      <point x="132" y="1055" type="line"/>
      <point x="132" y="1053" type="line"/>
      <point x="371" y="1053" type="line"/>
      <point x="563" y="1314" type="line"/>
      <point x="563" y="1317" type="line"/>
    </contour>
  </outline>
</glyph>
<glyph name="_gravecombsmall.case" format="2">
  <advance width="729"/>
  <anchor x="482" y="985" name="_top"/>
  <outline>
    <contour>
      <point x="466" y="1305" type="line"/>
      <point x="164" y="1305" type="line"/>
      <point x="164" y="1301" type="line"/>
      <point x="355" y="1055" type="line"/>
      <point x="600" y="1055" type="line"/>
      <point x="600" y="1058" type="line"/>
    </contour>
  </outline>
</glyph>
<glyph name="_gravecombsmall" format="2">
  <advance width="729"/>
  <anchor x="482" y="985" name="_top"/>
  <outline>
    <contour>
      <point x="461" y="1317" type="line"/>
      <point x="166" y="1317" type="line"/>
      <point x="166" y="1314" type="line"/>
      <point x="358" y="1053" type="line"/>
      <point x="597" y="1053" type="line"/>
      <point x="597" y="1055" type="line"/>
    </contour>
  </outline>
</glyph>
<glyph name="_tildecombsmall.case" format="2">
  <advance width="894"/>
  <anchor x="447" y="985" name="_top"/>
  <outline>
    <contour>
      <point x="581" y="1079" type="curve" smooth="yes"/>
      <point x="730" y="1079"/>
      <point x="782" y="1171"/>
      <point x="782" y="1305" type="curve" smooth="yes"/>
      <point x="782" y="1332" type="line"/>
      <point x="598" y="1332" type="line"/>
      <point x="598" y="1331" type="line"/>
      <point x="598" y="1294"/>
      <point x="587" y="1275"/>
      <point x="550" y="1275" type="curve" smooth="yes"/>
      <point x="489" y="1275"/>
      <point x="415" y="1322"/>
      <point x="316" y="1322" type="curve" smooth="yes"/>
      <point x="165" y="1322"/>
      <point x="113" y="1228"/>
      <point x="113" y="1100" type="curve" smooth="yes"/>
      <point x="113" y="1069" type="line"/>
      <point x="296" y="1069" type="line"/>
      <point x="296" y="1070" type="line"/>
      <point x="297" y="1106"/>
      <point x="308" y="1124"/>
      <point x="346" y="1124" type="curve" smooth="yes"/>
      <point x="407" y="1124"/>
      <point x="483" y="1079"/>
    </contour>
  </outline>
</glyph>
<glyph name="_tildecombsmall" format="2">
  <advance width="894"/>
  <anchor x="447" y="985" name="_top"/>
  <outline>
    <contour>
      <point x="579" y="1084" type="curve" smooth="yes"/>
      <point x="727" y="1084"/>
      <point x="778" y="1176"/>
      <point x="778" y="1310" type="curve" smooth="yes"/>
      <point x="778" y="1345" type="line"/>
      <point x="594" y="1345" type="line"/>
      <point x="594" y="1344" type="line"/>
      <point x="594" y="1305"/>
      <point x="583" y="1286"/>
      <point x="546" y="1286" type="curve" smooth="yes"/>
      <point x="487" y="1286"/>
      <point x="414" y="1333"/>
      <point x="317" y="1333" type="curve" smooth="yes"/>
      <point x="168" y="1333"/>
      <point x="117" y="1239"/>
      <point x="117" y="1111" type="curve" smooth="yes"/>
      <point x="117" y="1074" type="line"/>
      <point x="300" y="1074" type="line"/>
      <point x="300" y="1075" type="line"/>
      <point x="301" y="1112"/>
      <point x="312" y="1129"/>
      <point x="349" y="1129" type="curve" smooth="yes"/>
      <point x="409" y="1129"/>
      <point x="484" y="1084"/>
    </contour>
  </outline>
</glyph>
<glyph name="acutecomb.case" format="2">
  <anchor x="259" y="1278" name="_top"/>
  <anchor x="259" y="1644" name="top"/>
  <outline>
    <contour>
      <point x="296" y="1654" type="line"/>
      <point x="82" y="1376" type="line"/>
      <point x="82" y="1373" type="line"/>
      <point x="388" y="1373" type="line"/>
      <point x="669" y="1651" type="line"/>
      <point x="669" y="1654" type="line"/>
    </contour>
  </outline>
</glyph>
<glyph name="brevecomb.case" format="2">
  <anchor x="438" y="1278" name="_top"/>
  <anchor x="438" y="1634" name="top"/>
  <outline>
    <contour>
      <point x="438" y="1361" type="curve"/>
      <point x="671" y="1361"/>
      <point x="765" y="1468"/>
      <point x="769" y="1654" type="curve"/>
      <point x="549" y="1654" type="line"/>
      <point x="545" y="1591"/>
      <point x="511" y="1554"/>
      <point x="438" y="1554" type="curve" smooth="yes"/>
      <point x="363" y="1554"/>
      <point x="331" y="1592"/>
      <point x="327" y="1654" type="curve"/>
      <point x="107" y="1654" type="line"/>
      <point x="111" y="1468"/>
      <point x="207" y="1361"/>
    </contour>
  </outline>
</glyph>
<glyph name="brevecomb.narrow" format="2">
  <anchor x="438" y="985" name="_top"/>
  <anchor x="438" y="1370" name="top"/>
  <outline>
    <contour>
      <point x="439" y="1065" type="curve"/>
      <point x="645" y="1065"/>
      <point x="730" y="1176"/>
      <point x="735" y="1363" type="curve"/>
      <point x="524" y="1363" type="line"/>
      <point x="523" y="1301"/>
      <point x="499" y="1265"/>
      <point x="439" y="1265" type="curve" smooth="yes"/>
      <point x="377" y="1265"/>
      <point x="356" y="1301"/>
      <point x="354" y="1363" type="curve"/>
      <point x="143" y="1363" type="line"/>
      <point x="147" y="1176"/>
      <point x="233" y="1065"/>
    </contour>
  </outline>
</glyph>
<glyph name="brevecomb_tildecomb.case" format="2">
  <anchor x="438" y="1278" name="_top"/>
  <anchor x="437" y="1634" name="top"/>
  <outline>
    <contour>
      <point x="568" y="1726" type="curve" smooth="yes"/>
      <point x="714" y="1726"/>
      <point x="765" y="1817"/>
      <point x="765" y="1948" type="curve" smooth="yes"/>
      <point x="765" y="1974" type="line"/>
      <point x="585" y="1974" type="line"/>
      <point x="585" y="1973" type="line"/>
      <point x="585" y="1937"/>
      <point x="574" y="1919"/>
      <point x="538" y="1919" type="curve" smooth="yes"/>
      <point x="478" y="1919"/>
      <point x="406" y="1965"/>
      <point x="309" y="1965" type="curve" smooth="yes"/>
      <point x="161" y="1965"/>
      <point x="110" y="1872"/>
      <point x="110" y="1747" type="curve" smooth="yes"/>
      <point x="110" y="1717" type="line"/>
      <point x="289" y="1717" type="line"/>
      <point x="289" y="1718" type="line"/>
      <point x="290" y="1753"/>
      <point x="301" y="1771"/>
      <point x="338" y="1771" type="curve" smooth="yes"/>
      <point x="398" y="1771"/>
      <point x="472" y="1726"/>
    </contour>
    <component base="brevecomb.case" xOffset="-1"/>
  </outline>
</glyph>
<glyph name="brevecomb_tildecomb" format="2">
  <anchor x="438" y="985" name="_top"/>
  <anchor x="437" y="1370" name="top"/>
  <outline>
    <contour>
      <point x="566" y="1455" type="curve" smooth="yes"/>
      <point x="711" y="1455"/>
      <point x="761" y="1545"/>
      <point x="761" y="1677" type="curve" smooth="yes"/>
      <point x="761" y="1711" type="line"/>
      <point x="581" y="1711" type="line"/>
      <point x="581" y="1710" type="line"/>
      <point x="581" y="1672"/>
      <point x="570" y="1653"/>
      <point x="534" y="1653" type="curve" smooth="yes"/>
      <point x="476" y="1653"/>
      <point x="405" y="1699"/>
      <point x="310" y="1699" type="curve" smooth="yes"/>
      <point x="164" y="1699"/>
      <point x="114" y="1607"/>
      <point x="114" y="1482" type="curve" smooth="yes"/>
      <point x="114" y="1446" type="line"/>
      <point x="293" y="1446" type="line"/>
      <point x="293" y="1447" type="line"/>
      <point x="294" y="1483"/>
      <point x="305" y="1499"/>
      <point x="341" y="1499" type="curve" smooth="yes"/>
      <point x="400" y="1499"/>
      <point x="473" y="1455"/>
    </contour>
    <component base="brevecomb" xOffset="-1"/>
  </outline>
</glyph>
<glyph name="breveinvertedcomb.case" format="2">
  <anchor x="438" y="1278" name="_top"/>
  <anchor x="438" y="1644" name="top"/>
  <outline>
    <contour>
      <point x="438" y="1666" type="curve"/>
      <point x="207" y="1666"/>
      <point x="111" y="1559"/>
      <point x="107" y="1373" type="curve"/>
      <point x="327" y="1373" type="line"/>
      <point x="331" y="1435"/>
      <point x="363" y="1473"/>
      <point x="438" y="1473" type="curve" smooth="yes"/>
      <point x="511" y="1473"/>
      <point x="545" y="1436"/>
      <point x="549" y="1373" type="curve"/>
      <point x="769" y="1373" type="line"/>
      <point x="765" y="1559"/>
      <point x="671" y="1666"/>
    </contour>
  </outline>
</glyph>
<glyph name="breveinvertedcomb.narrow" format="2">
  <anchor x="438" y="985" name="_top"/>
  <anchor x="438" y="1375" name="top"/>
  <outline>
    <contour>
      <point x="439" y="1373" type="curve"/>
      <point x="233" y="1373"/>
      <point x="147" y="1262"/>
      <point x="143" y="1075" type="curve"/>
      <point x="354" y="1075" type="line"/>
      <point x="356" y="1137"/>
      <point x="377" y="1173"/>
      <point x="439" y="1173" type="curve" smooth="yes"/>
      <point x="499" y="1173"/>
      <point x="523" y="1137"/>
      <point x="524" y="1075" type="curve"/>
      <point x="735" y="1075" type="line"/>
      <point x="730" y="1262"/>
      <point x="645" y="1373"/>
    </contour>
  </outline>
</glyph>
<glyph name="caroncomb.alt" format="2">
  <anchor x="62" y="1278" name="_topright"/>
  <outline>
    <contour>
      <point x="346" y="1278" type="curve"/>
      <point x="60" y="1278" type="line"/>
      <point x="63" y="1238"/>
      <point x="65" y="1210"/>
      <point x="65" y="1174" type="curve" smooth="yes"/>
      <point x="65" y="1054"/>
      <point x="50" y="955"/>
      <point x="25" y="867" type="curve"/>
      <point x="237" y="819" type="line"/>
      <point x="318" y="927"/>
      <point x="354" y="1048"/>
      <point x="354" y="1190" type="curve" smooth="yes"/>
      <point x="354" y="1224"/>
      <point x="350" y="1255"/>
    </contour>
  </outline>
</glyph>
<glyph name="caroncomb.case" format="2">
  <anchor x="476" y="1278" name="_top"/>
  <anchor x="476" y="1634" name="top"/>
  <outline>
    <contour>
      <point x="299" y="1373" type="line"/>
      <point x="652" y="1373" type="line"/>
      <point x="852" y="1649" type="line"/>
      <point x="852" y="1654" type="line"/>
      <point x="584" y="1654" type="line"/>
      <point x="480" y="1537" type="line"/>
      <point x="471" y="1537" type="line"/>
      <point x="367" y="1654" type="line"/>
      <point x="99" y="1654" type="line"/>
      <point x="99" y="1649" type="line"/>
    </contour>
  </outline>
</glyph>
<glyph name="circumflexcomb.case" format="2">
  <anchor x="478" y="1278" name="_top"/>
  <anchor x="478" y="1634" name="top"/>
  <outline>
    <contour>
      <point x="302" y="1654" type="line"/>
      <point x="102" y="1378" type="line"/>
      <point x="102" y="1373" type="line"/>
      <point x="370" y="1373" type="line"/>
      <point x="474" y="1490" type="line"/>
      <point x="483" y="1490" type="line"/>
      <point x="587" y="1373" type="line"/>
      <point x="855" y="1373" type="line"/>
      <point x="855" y="1378" type="line"/>
      <point x="655" y="1654" type="line"/>
    </contour>
  </outline>
</glyph>
<glyph name="circumflexcomb_tildecomb.case" format="2">
  <anchor x="478" y="1278" name="_top"/>
  <anchor x="478" y="1634" name="top"/>
  <outline>
    <contour>
      <point x="609" y="1726" type="curve" smooth="yes"/>
      <point x="755" y="1726"/>
      <point x="806" y="1817"/>
      <point x="806" y="1948" type="curve" smooth="yes"/>
      <point x="806" y="1974" type="line"/>
      <point x="626" y="1974" type="line"/>
      <point x="626" y="1973" type="line"/>
      <point x="626" y="1937"/>
      <point x="615" y="1919"/>
      <point x="579" y="1919" type="curve" smooth="yes"/>
      <point x="519" y="1919"/>
      <point x="447" y="1965"/>
      <point x="350" y="1965" type="curve" smooth="yes"/>
      <point x="202" y="1965"/>
      <point x="151" y="1872"/>
      <point x="151" y="1747" type="curve" smooth="yes"/>
      <point x="151" y="1717" type="line"/>
      <point x="330" y="1717" type="line"/>
      <point x="330" y="1718" type="line"/>
      <point x="331" y="1753"/>
      <point x="342" y="1771"/>
      <point x="379" y="1771" type="curve" smooth="yes"/>
      <point x="439" y="1771"/>
      <point x="513" y="1726"/>
    </contour>
    <component base="circumflexcomb.case"/>
  </outline>
</glyph>
<glyph name="circumflexcomb_tildecomb" format="2">
  <anchor x="456" y="985" name="_top"/>
  <anchor x="456" y="1358" name="top"/>
  <outline>
    <contour>
      <point x="585" y="1455" type="curve" smooth="yes"/>
      <point x="730" y="1455"/>
      <point x="780" y="1545"/>
      <point x="780" y="1677" type="curve" smooth="yes"/>
      <point x="780" y="1711" type="line"/>
      <point x="600" y="1711" type="line"/>
      <point x="600" y="1710" type="line"/>
      <point x="600" y="1672"/>
      <point x="589" y="1653"/>
      <point x="553" y="1653" type="curve" smooth="yes"/>
      <point x="495" y="1653"/>
      <point x="424" y="1699"/>
      <point x="329" y="1699" type="curve" smooth="yes"/>
      <point x="183" y="1699"/>
      <point x="133" y="1607"/>
      <point x="133" y="1482" type="curve" smooth="yes"/>
      <point x="133" y="1446" type="line"/>
      <point x="312" y="1446" type="line"/>
      <point x="312" y="1447" type="line"/>
      <point x="313" y="1483"/>
      <point x="324" y="1499"/>
      <point x="360" y="1499" type="curve" smooth="yes"/>
      <point x="419" y="1499"/>
      <point x="492" y="1455"/>
    </contour>
    <component base="circumflexcomb"/>
  </outline>
</glyph>
<glyph name="commaturnedabovecomb.case" format="2">
  <anchor x="248" y="1278" name="_top"/>
  <anchor x="277" y="1733" name="top"/>
  <outline>
    <contour>
      <point x="126" y="1371" type="curve"/>
      <point x="417" y="1371" type="line"/>
      <point x="414" y="1403"/>
      <point x="413" y="1429"/>
      <point x="413" y="1458" type="curve" smooth="yes"/>
      <point x="413" y="1566"/>
      <point x="434" y="1649"/>
      <point x="471" y="1725" type="curve"/>
      <point x="245" y="1775" type="line"/>
      <point x="157" y="1681"/>
      <point x="120" y="1580"/>
      <point x="120" y="1455" type="curve" smooth="yes"/>
      <point x="120" y="1426"/>
      <point x="123" y="1395"/>
    </contour>
  </outline>
</glyph>
<glyph name="dblgravecomb.case" format="2">
  <anchor x="599" y="1278" name="_top"/>
  <anchor x="451" y="1644" name="top"/>
  <outline>
    <contour>
      <point x="418" y="1654" type="line"/>
      <point x="122" y="1654" type="line"/>
      <point x="122" y="1650" type="line"/>
      <point x="313" y="1373" type="line"/>
      <point x="549" y="1373" type="line"/>
      <point x="549" y="1375" type="line"/>
    </contour>
    <contour>
      <point x="775" y="1654" type="line"/>
      <point x="481" y="1654" type="line"/>
      <point x="481" y="1650" type="line"/>
      <point x="668" y="1373" type="line"/>
      <point x="906" y="1373" type="line"/>
      <point x="906" y="1375" type="line"/>
    </contour>
  </outline>
</glyph>
<glyph name="dblgravecomb.narrow" format="2">
  <anchor x="580" y="985" name="_top"/>
  <anchor x="453" y="1376" name="top"/>
  <outline>
    <contour>
      <point x="449" y="1376" type="line"/>
      <point x="166" y="1376" type="line"/>
      <point x="166" y="1371" type="line"/>
      <point x="314" y="1075" type="line"/>
      <point x="542" y="1075" type="line"/>
      <point x="542" y="1077" type="line"/>
    </contour>
    <contour>
      <point x="786" y="1376" type="line"/>
      <point x="503" y="1376" type="line"/>
      <point x="503" y="1371" type="line"/>
      <point x="622" y="1075" type="line"/>
      <point x="850" y="1075" type="line"/>
      <point x="850" y="1077" type="line"/>
    </contour>
  </outline>
</glyph>
<glyph name="dotaccentcomb.case" format="2">
  <anchor x="275" y="1278" name="_top"/>
  <anchor x="274" y="1633" name="top"/>
  <outline>
    <contour>
      <point x="274" y="1365" type="curve" smooth="yes"/>
      <point x="388" y="1365"/>
      <point x="443" y="1423"/>
      <point x="443" y="1517" type="curve" smooth="yes"/>
      <point x="443" y="1523" type="line" smooth="yes"/>
      <point x="443" y="1617"/>
      <point x="388" y="1676"/>
      <point x="274" y="1676" type="curve" smooth="yes"/>
      <point x="162" y="1676"/>
      <point x="107" y="1617"/>
      <point x="107" y="1523" type="curve" smooth="yes"/>
      <point x="107" y="1517" type="line" smooth="yes"/>
      <point x="107" y="1423"/>
      <point x="162" y="1365"/>
    </contour>
  </outline>
</glyph>
<glyph name="dotbelowcomb.case" format="2">
  <anchor x="275" y="0" name="_bottom"/>
  <anchor x="275" y="-423" name="bottom"/>
  <outline>
    <contour>
      <point x="274" y="-393" type="curve" smooth="yes"/>
      <point x="388" y="-393"/>
      <point x="443" y="-335"/>
      <point x="443" y="-241" type="curve" smooth="yes"/>
      <point x="443" y="-235" type="line" smooth="yes"/>
      <point x="443" y="-141"/>
      <point x="388" y="-82"/>
      <point x="274" y="-82" type="curve" smooth="yes"/>
      <point x="162" y="-82"/>
      <point x="107" y="-141"/>
      <point x="107" y="-235" type="curve" smooth="yes"/>
      <point x="107" y="-241" type="line" smooth="yes"/>
      <point x="107" y="-335"/>
      <point x="162" y="-393"/>
    </contour>
  </outline>
</glyph>
<glyph name="horncomb.case" format="2">
  <anchor x="407" y="1278" name="_topright"/>
  <anchor x="501" y="1494" name="topright"/>
  <outline>
    <contour>
      <point x="196" y="1126" type="line"/>
      <point x="399" y="1162"/>
      <point x="488" y="1248"/>
      <point x="488" y="1395" type="curve" smooth="yes"/>
      <point x="488" y="1428"/>
      <point x="483" y="1462"/>
      <point x="476" y="1487" type="curve"/>
      <point x="180" y="1487" type="line"/>
      <point x="184" y="1465"/>
      <point x="187" y="1437"/>
      <point x="187" y="1413" type="curve" smooth="yes"/>
      <point x="187" y="1346"/>
      <point x="167" y="1295"/>
      <point x="96" y="1260" type="curve"/>
    </contour>
  </outline>
</glyph>
<glyph name="horncomb.case_O" format="2">
  <anchor x="181" y="1278" name="_topright"/>
  <anchor x="302" y="1494" name="topright"/>
  <outline>
    <contour>
      <point x="-15" y="1094" type="line"/>
      <point x="203" y="1143"/>
      <point x="289" y="1240"/>
      <point x="289" y="1395" type="curve" smooth="yes"/>
      <point x="289" y="1428"/>
      <point x="285" y="1462"/>
      <point x="278" y="1487" type="curve"/>
      <point x="-19" y="1487" type="line"/>
      <point x="-15" y="1465"/>
      <point x="-12" y="1437"/>
      <point x="-12" y="1413" type="curve" smooth="yes"/>
      <point x="-12" y="1346"/>
      <point x="-41" y="1289"/>
      <point x="-128" y="1251" type="curve"/>
    </contour>
  </outline>
</glyph>
<glyph name="horncomb_o" format="2">
  <anchor x="399" y="985" name="_topright"/>
  <anchor x="490" y="1199" name="topright"/>
  <outline>
    <contour>
      <point x="209" y="825" type="line"/>
      <point x="395" y="874"/>
      <point x="470" y="963"/>
      <point x="470" y="1107" type="curve" smooth="yes"/>
      <point x="470" y="1140"/>
      <point x="466" y="1174"/>
      <point x="459" y="1199" type="curve"/>
      <point x="163" y="1199" type="line"/>
      <point x="166" y="1177"/>
      <point x="169" y="1149"/>
      <point x="169" y="1125" type="curve" smooth="yes"/>
      <point x="169" y="1062"/>
      <point x="151" y="1009"/>
      <point x="91" y="976" type="curve"/>
    </contour>
  </outline>
</glyph>
<glyph name="hungarumlautcomb.case" format="2">
  <anchor x="399" y="1278" name="_top"/>
  <anchor x="547" y="1644" name="top"/>
  <outline>
    <contour>
      <point x="579" y="1654" type="line"/>
      <point x="448" y="1375" type="line"/>
      <point x="448" y="1373" type="line"/>
      <point x="684" y="1373" type="line"/>
      <point x="875" y="1650" type="line"/>
      <point x="875" y="1654" type="line"/>
    </contour>
    <contour>
      <point x="222" y="1654" type="line"/>
      <point x="91" y="1375" type="line"/>
      <point x="91" y="1373" type="line"/>
      <point x="329" y="1373" type="line"/>
      <point x="516" y="1650" type="line"/>
      <point x="516" y="1654" type="line"/>
    </contour>
  </outline>
</glyph>
<glyph name="hungarumlautcomb.narrow" format="2">
  <anchor x="399" y="985" name="_top"/>
  <anchor x="523" y="1376" name="top"/>
  <outline>
    <contour>
      <point x="530" y="1376" type="line"/>
      <point x="437" y="1077" type="line"/>
      <point x="437" y="1075" type="line"/>
      <point x="665" y="1075" type="line"/>
      <point x="813" y="1371" type="line"/>
      <point x="813" y="1376" type="line"/>
    </contour>
    <contour>
      <point x="193" y="1376" type="line"/>
      <point x="129" y="1077" type="line"/>
      <point x="129" y="1075" type="line"/>
      <point x="357" y="1075" type="line"/>
      <point x="476" y="1371" type="line"/>
      <point x="476" y="1376" type="line"/>
    </contour>
  </outline>
</glyph>
<glyph name="ogonekcomb.case" format="2">
  <anchor x="584" y="0" name="_ogonek"/>
  <outline>
    <contour>
      <point x="399" y="-362" type="curve" smooth="yes"/>
      <point x="462" y="-362"/>
      <point x="515" y="-353"/>
      <point x="564" y="-334" type="curve"/>
      <point x="593" y="-114" type="line"/>
      <point x="559" y="-122"/>
      <point x="525" y="-127"/>
      <point x="488" y="-127" type="curve" smooth="yes"/>
      <point x="431" y="-127"/>
      <point x="400" y="-113"/>
      <point x="400" y="-74" type="curve"/>
      <point x="400" y="-74" type="line"/>
      <point x="400" y="-35"/>
      <point x="441" y="-8"/>
      <point x="523" y="1" type="curve"/>
      <point x="513" y="5" type="line"/>
      <point x="305" y="10" type="line"/>
      <point x="305" y="-9" type="line"/>
      <point x="213" y="-38"/>
      <point x="155" y="-94"/>
      <point x="155" y="-187" type="curve"/>
      <point x="155" y="-188" type="line" smooth="yes"/>
      <point x="155" y="-306"/>
      <point x="251" y="-362"/>
    </contour>
  </outline>
</glyph>
<glyph name="periodcentered.loclCAT.case" format="2">
  <outline>
    <contour>
      <point x="-222" y="580" type="curve" smooth="yes"/>
      <point x="-111" y="580"/>
      <point x="-57" y="641"/>
      <point x="-57" y="739" type="curve" smooth="yes"/>
      <point x="-57" y="749" type="line" smooth="yes"/>
      <point x="-57" y="847"/>
      <point x="-111" y="909"/>
      <point x="-222" y="909" type="curve" smooth="yes"/>
      <point x="-331" y="909"/>
      <point x="-385" y="847"/>
      <point x="-385" y="749" type="curve" smooth="yes"/>
      <point x="-385" y="739" type="line" smooth="yes"/>
      <point x="-385" y="641"/>
      <point x="-331" y="580"/>
    </contour>
  </outline>
</glyph>
<glyph name="periodcentered.loclCAT" format="2">
  <advance width="221"/>
  <outline>
    <contour>
      <point x="110" y="552" type="curve" smooth="yes"/>
      <point x="216" y="552"/>
      <point x="268" y="613"/>
      <point x="268" y="711" type="curve" smooth="yes"/>
      <point x="268" y="721" type="line" smooth="yes"/>
      <point x="268" y="819"/>
      <point x="216" y="881"/>
      <point x="110" y="881" type="curve" smooth="yes"/>
      <point x="5" y="881"/>
      <point x="-47" y="819"/>
      <point x="-47" y="721" type="curve" smooth="yes"/>
      <point x="-47" y="711" type="line" smooth="yes"/>
      <point x="-47" y="613"/>
      <point x="5" y="552"/>
    </contour>
  </outline>
</glyph>
